<?xml version="1.0" encoding="UTF-8" standalone="no"?>
<!-- Created with Inkscape (http://www.inkscape.org/) -->

<svg
   xmlns:dc="http://purl.org/dc/elements/1.1/"
   xmlns:cc="http://creativecommons.org/ns#"
   xmlns:rdf="http://www.w3.org/1999/02/22-rdf-syntax-ns#"
   xmlns:svg="http://www.w3.org/2000/svg"
   xmlns="http://www.w3.org/2000/svg"
   xmlns:sodipodi="http://sodipodi.sourceforge.net/DTD/sodipodi-0.dtd"
   xmlns:inkscape="http://www.inkscape.org/namespaces/inkscape"
   width="20.32mm"
   height="20.32mm"
   viewBox="0 0 71.999999 71.999999"
   id="svg5070"
   version="1.1"
   inkscape:version="0.91 r13725"
   sodipodi:docname="icon_omnichannel.svg">
  <defs
     id="defs5072" />
  <sodipodi:namedview
     id="base"
     pagecolor="#ffffff"
     bordercolor="#666666"
     borderopacity="1.0"
     inkscape:pageopacity="0.0"
     inkscape:pageshadow="2"
     inkscape:zoom="3.35"
     inkscape:cx="62.046908"
     inkscape:cy="22.857143"
     inkscape:document-units="px"
     inkscape:current-layer="layer1"
     showgrid="false"
     fit-margin-top="0"
     fit-margin-left="0"
     fit-margin-right="0"
     fit-margin-bottom="0"
     inkscape:window-width="1366"
     inkscape:window-height="705"
     inkscape:window-x="-8"
     inkscape:window-y="-8"
     inkscape:window-maximized="1" />
  <metadata
     id="metadata5075">
    <rdf:RDF>
      <cc:Work
         rdf:about="">
        <dc:format>image/svg+xml</dc:format>
        <dc:type
           rdf:resource="http://purl.org/dc/dcmitype/StillImage" />
        <dc:title />
      </cc:Work>
    </rdf:RDF>
  </metadata>
  <g
     inkscape:label="Layer 1"
     inkscape:groupmode="layer"
     id="layer1"
     transform="translate(-32.571427,-884.93366)">
    <g
       transform="translate(1281.7264,156.73746)"
       id="g4992"
       style="fill:#1c62b7;fill-opacity:1">
      <g
         transform="matrix(0.14484007,0,0,0.14484007,-1249.365,728.0948)"
         style="fill:#1c62b7;fill-opacity:1"
         id="g4868">
        <g
           style="fill:#1c62b7;fill-opacity:1"
           id="g4870">
          <path
             style="fill:#1c62b7;fill-opacity:1"
             inkscape:connector-curvature="0"
             d="m 359,216.1 c -7.3,0 -13.3,-5.9 -13.3,-13.3 l 0,-51.4 -49.3,0 c -7.3,0 -13.3,-5.9 -13.3,-13.3 0,-7.3 5.9,-13.3 13.3,-13.3 l 62.6,0 c 7.3,0 13.3,5.9 13.3,13.3 l 0,64.7 c 0,7.4 -5.9,13.3 -13.3,13.3 z"
             id="path4872" />
        </g>
        <g
           style="fill:#1c62b7;fill-opacity:1"
           id="g4874">
          <rect
             style="fill:#1c62b7;fill-opacity:1"
             x="306"
             y="121.7"
             transform="matrix(0.7071,0.7071,-0.7071,0.7071,219.3353,-173.6153)"
             width="26.6"
             height="112.5"
             id="rect4876" />
        </g>
      </g>
      <g
         transform="matrix(0.14484007,0,0,0.14484007,-1249.365,728.0948)"
         style="fill:#1c62b7;fill-opacity:1"
         id="g4878">
        <g
           style="fill:#1c62b7;fill-opacity:1"
           id="g4880">
          <g
             style="fill:#1c62b7;fill-opacity:1"
             id="g4882">
            <path
               style="fill:#1c62b7;fill-opacity:1"
               inkscape:connector-curvature="0"
               d="m 201.5,373.7 -62.6,0 c -7.3,0 -13.3,-5.9 -13.3,-13.3 l 0,-64.7 c 0,-7.3 5.9,-13.3 13.3,-13.3 7.3,0 13.3,5.9 13.3,13.3 l 0,51.4 49.3,0 c 7.3,0 13.3,5.9 13.3,13.3 0,7.4 -6,13.3 -13.3,13.3 z"
               id="path4884" />
          </g>
          <g
             style="fill:#1c62b7;fill-opacity:1"
             id="g4886">
            <rect
               style="fill:#1c62b7;fill-opacity:1"
               x="165.3"
               y="264.70001"
               transform="matrix(0.7071,0.7071,-0.7071,0.7071,279.0949,-32.2934)"
               width="26.6"
               height="112.1"
               id="rect4888" />
          </g>
        </g>
        <g
           style="fill:#1c62b7;fill-opacity:1"
           id="g4890">
          <g
             style="fill:#1c62b7;fill-opacity:1"
             id="g4892">
            <path
               style="fill:#1c62b7;fill-opacity:1"
               inkscape:connector-curvature="0"
               d="m 361.1,373.1 -64.7,0 c -7.3,0 -13.3,-5.9 -13.3,-13.3 0,-7.4 5.9,-13.3 13.3,-13.3 l 51.4,0 0,-49.3 c 0,-7.3 5.9,-13.3 13.3,-13.3 7.4,0 13.3,5.9 13.3,13.3 l 0,62.6 c 0,7.4 -6,13.3 -13.3,13.3 z"
               id="path4894" />
          </g>
          <g
             style="fill:#1c62b7;fill-opacity:1"
             id="g4896">
            <polygon
               style="fill:#1c62b7;fill-opacity:1"
               points="273,290.3 291.8,271.5 370.5,350.5 351.7,369.3 "
               id="polygon4898" />
          </g>
        </g>
        <g
           style="fill:#1c62b7;fill-opacity:1"
           id="g4900">
          <g
             style="fill:#1c62b7;fill-opacity:1"
             id="g4902">
            <path
               style="fill:#1c62b7;fill-opacity:1"
               inkscape:connector-curvature="0"
               d="m 139.7,216.4 c -7.3,0 -13.3,-5.9 -13.3,-13.3 l 0,-62.6 c 0,-7.3 5.9,-13.3 13.3,-13.3 l 64.7,0 c 7.3,0 13.3,5.9 13.3,13.3 0,7.3 -5.9,13.3 -13.3,13.3 l -51.4,0 0,49.3 c 0,7.4 -6,13.3 -13.3,13.3 z"
               id="path4904" />
          </g>
          <g
             style="fill:#1c62b7;fill-opacity:1"
             id="g4906">
            <rect
               style="fill:#1c62b7;fill-opacity:1"
               x="123.3"
               y="166.89999"
               transform="matrix(0.7071,0.7071,-0.7071,0.7071,179.9452,-74.0404)"
               width="112.1"
               height="26.6"
               id="rect4908" />
          </g>
        </g>
      </g>
    </g>
    <circle
       r="35.037563"
       cy="920.93365"
       cx="68.571426"
       id="circle4990"
       style="opacity:1;fill:none;fill-opacity:1;stroke:#1c62b7;stroke-width:1.92487288;stroke-miterlimit:4;stroke-dasharray:none;stroke-opacity:1" />
  </g>
</svg>
