<?xml version="1.0" encoding="UTF-8" standalone="no"?>
<!-- Created with Inkscape (http://www.inkscape.org/) -->

<svg
   xmlns:dc="http://purl.org/dc/elements/1.1/"
   xmlns:cc="http://creativecommons.org/ns#"
   xmlns:rdf="http://www.w3.org/1999/02/22-rdf-syntax-ns#"
   xmlns:svg="http://www.w3.org/2000/svg"
   xmlns="http://www.w3.org/2000/svg"
   xmlns:sodipodi="http://sodipodi.sourceforge.net/DTD/sodipodi-0.dtd"
   xmlns:inkscape="http://www.inkscape.org/namespaces/inkscape"
   width="20.32mm"
   height="20.32mm"
   viewBox="0 0 71.999999 71.999999"
   id="svg5070"
   version="1.1"
   inkscape:version="0.91 r13725"
   sodipodi:docname="icon_marketplace.svg">
  <defs
     id="defs5072" />
  <sodipodi:namedview
     id="base"
     pagecolor="#ffffff"
     bordercolor="#666666"
     borderopacity="1.0"
     inkscape:pageopacity="0.0"
     inkscape:pageshadow="2"
     inkscape:zoom="4.8102564"
     inkscape:cx="20.563477"
     inkscape:cy="27.191804"
     inkscape:document-units="px"
     inkscape:current-layer="layer1"
     showgrid="false"
     fit-margin-top="0"
     fit-margin-left="0"
     fit-margin-right="0"
     fit-margin-bottom="0"
     inkscape:window-width="1366"
     inkscape:window-height="705"
     inkscape:window-x="-8"
     inkscape:window-y="-8"
     inkscape:window-maximized="1" />
  <metadata
     id="metadata5075">
    <rdf:RDF>
      <cc:Work
         rdf:about="">
        <dc:format>image/svg+xml</dc:format>
        <dc:type
           rdf:resource="http://purl.org/dc/dcmitype/StillImage" />
        <dc:title />
      </cc:Work>
    </rdf:RDF>
  </metadata>
  <g
     inkscape:label="Layer 1"
     inkscape:groupmode="layer"
     id="layer1"
     transform="translate(-83.261193,-933.61487)">
    <path
       id="path4850"
       d="m 129.62854,972.30022 c -0.5934,-0.42365 -1.2132,-0.70563 -1.849,-0.84728 -0.376,-0.0719 -0.7681,-0.0991 -1.1727,-0.077 -0.3823,0.0213 -0.7468,0.0715 -1.0926,0.14973 -0.2595,0.0719 -0.5198,0.16545 -0.7806,0.2803 -0.7731,0.3411 -1.4414,0.7707 -1.9901,1.29003 -0.5197,0.54867 -0.9493,1.2173 -1.2904,1.99013 -0.1148,0.2603 -0.2084,0.52059 -0.2803,0.78005 -0.078,0.34622 -0.1289,0.71032 -0.1497,1.0927 -0.022,0.40449 0.01,0.79664 0.077,1.17263 0.1415,0.63587 0.4236,1.25559 0.8472,1.84892 0.1654,0.23138 0.3437,0.44234 0.5342,0.6329 0.8532,0.85194 1.9493,1.30577 3.2079,1.4508 0.3793,0.0434 0.7707,0.0715 1.1284,0.19055 0.2178,0.0723 0.3896,0.17354 0.5138,0.29858 0.2827,0.28072 0.3245,0.68479 0.1063,1.15862 -0.134,0.29093 -0.3275,0.57207 -0.5513,0.80131 l -0.1186,0.12165 c -0.1672,0.16675 -0.2727,0.27221 -0.2998,0.29944 -0.1332,0.13441 -0.2595,0.26157 -0.3854,0.38919 l -0.1259,0.12419 c -0.4475,0.44999 -0.897,0.8983 -1.3466,1.34618 -0.9681,0.97061 -1.9382,1.93865 -2.9084,2.90757 -0.319,0.31898 -0.6381,0.638 -0.9571,0.95656 -0.1471,0.14674 -0.3006,0.27138 -0.4585,0.37389 -0.077,0.0519 -0.1484,0.0953 -0.2203,0.13439 -0.8336,0.42065 -1.7621,0.25179 -2.5196,-0.50531 -0.2297,-0.22966 -0.4518,-0.45168 -0.6742,-0.67372 -1.2866,-1.28662 -2.5724,-2.5741 -3.8607,-3.85903 -0.3655,-0.36451 -0.7286,-0.72648 -1.0923,-1.08843 -0.2602,-0.25904 -0.5389,-0.50401 -0.8319,-0.72563 -0.2433,-0.18415 -0.493,-0.32153 -0.7427,-0.41383 -0.9,-0.31134 -1.7613,-0.0855 -2.3252,0.56399 -0.1621,0.20416 -0.2977,0.44532 -0.3995,0.72051 -0.1458,0.39386 -0.1956,0.82812 -0.2509,1.24878 -0.2084,1.59627 -1.0974,2.91054 -2.381,3.51537 -0.3181,0.15524 -0.6589,0.26753 -1.0165,0.33091 -0.3382,0.06 -0.6784,0.0727 -1.0144,0.0443 -1.1319,-0.0574 -2.1046,-0.55675 -2.914,-1.38532 -0.071,-0.071 -0.08901,-0.0889 -0.106705,-0.10675 -0.8287,-0.80899 -1.3279,-1.78215 -1.3854,-2.91354 -0.029,-0.33601 -0.016,-0.67626 0.044,-1.01441 0.063,-0.35769 0.1757,-0.69882 0.3309,-1.01654 0.6049,-1.28364 1.919605,-2.17218 3.515505,-2.38061 0.4205,-0.0548 0.8548,-0.10503 1.2487,-0.25093 0.2951,-0.10887 0.5513,-0.25733 0.7643,-0.43511 0.6184,-0.55932 0.8333,-1.38787 0.5461,-2.22618 -0.1182,-0.31263 -0.2551,-0.5623 -0.4393,-0.8056 -0.2216,-0.29263 -0.4666,-0.57122 -0.7256,-0.83152 -0.3619,-0.36365 -0.7244,-0.72688 -1.0867,-1.09013 -1.1451,-1.14755 -2.2901,-2.2917 -3.434605,-3.43582 l -0.4266,-0.42662 c -0.2221,-0.22203 -0.4445,-0.44447 -0.649,-0.64949 -0.7823,-0.7826 -0.9507,-1.71069 -0.53,-2.54432 0.039,-0.0719 0.083,-0.14335 0.1309,-0.21481 0.106,-0.16332 0.2306,-0.31688 0.3773,-0.46404 0.3186,-0.31898 0.6376,-0.638 0.9566,-0.95699 0.968505,-0.97019 1.936905,-1.94037 2.907505,-2.90842 0.448,-0.44957 0.8958,-0.89916 1.3463,-1.34661 l 0.1242,-0.1259 c 0.1271,-0.12632 0.2547,-0.25222 0.3819,-0.37853 0.034,-0.0345 0.1394,-0.13995 0.3063,-0.3071 l 0.1216,-0.11866 c 0.2293,-0.22374 0.5104,-0.41683 0.8013,-0.55123 0.4738,-0.21821 0.8775,-0.17651 1.1586,0.10632 0.125,0.1242 0.2263,0.29605 0.2986,0.51382 0.1186,0.35769 0.1467,0.749 0.1906,1.12839 0.1449,1.25857 0.5988,2.35422 1.4507,3.20743 0.191,0.19056 0.4016,0.36878 0.6329,0.53422 0.5934,0.42363 1.2131,0.70564 1.8489,0.84727 0.3761,0.0718 0.7682,0.0991 1.1727,0.077 0.3824,-0.0213 0.7469,-0.0715 1.0927,-0.14973 0.2595,-0.0718 0.5197,-0.16544 0.7805,-0.28029 0.7732,-0.3411 1.4415,-0.77069 1.9901,-1.29003 0.5198,-0.54868 0.9493,-1.2173 1.2905,-1.99014 0.1148,-0.26028 0.2084,-0.52059 0.2803,-0.78005 0.078,-0.34622 0.1289,-0.71029 0.1496,-1.09267 0.022,-0.40449 -0.01,-0.79665 -0.077,-1.17266 -0.1417,-0.63586 -0.4237,-1.25556 -0.8473,-1.84891 -0.1655,-0.23139 -0.3437,-0.44235 -0.5342,-0.6329 -0.8533,-0.85193 -1.9494,-1.30576 -3.2079,-1.4508 -0.3794,-0.0435 -0.7707,-0.0715 -1.1284,-0.19056 -0.2178,-0.0723 -0.3896,-0.17353 -0.5138,-0.29858 -0.2828,-0.28072 -0.3246,-0.68479 -0.1064,-1.1586 0.134,-0.29093 0.3276,-0.57208 0.5512,-0.80133 l 0.1188,-0.12164 c 0.1671,-0.16673 0.2726,-0.27222 0.2998,-0.29943 0.1331,-0.13441 0.2595,-0.26158 0.3854,-0.38918 l 0.1259,-0.1242 c 0.4474,-0.45001 0.8969,-0.89831 1.3465,-1.34617 0.9681,-0.97063 1.9383,-1.93867 2.9085,-2.90715 0.319,-0.319 0.638,-0.63801 0.957,-0.95659 0.1472,-0.14674 0.3007,-0.27135 0.4585,-0.37387 0.077,-0.0519 0.1484,-0.0953 0.2204,-0.13441 0.8336,-0.42063 1.7621,-0.25178 2.5196,0.50531 0.2297,0.22969 0.4518,0.45171 0.6742,0.67372 1.2865,1.28664 2.5723,2.57411 3.8607,3.85905 0.3654,0.36451 0.7285,0.72646 1.0922,1.08843 0.2604,0.25902 0.5389,0.50402 0.832,0.72561 0.2433,0.18416 0.493,0.32155 0.7426,0.41385 0.9,0.31133 1.7613,0.0855 2.3252,-0.56398 0.1622,-0.20417 0.2979,-0.44533 0.3995,-0.72052 0.1459,-0.39385 0.1957,-0.82812 0.2509,-1.24877 0.2084,-1.59628 1.0974,-2.91056 2.3811,-3.51539 0.3182,-0.15525 0.6588,-0.26711 1.0165,-0.33091 0.3382,-0.06 0.6784,-0.0727 1.0144,-0.0442 1.1318,0.0574 2.1045,0.55674 2.9139,1.3853 0.071,0.071 0.089,0.0889 0.1069,0.10676 0.8285,0.80897 1.3279,1.78213 1.3853,2.91352 0.029,0.33601 0.016,0.67628 -0.044,1.01442 -0.063,0.3577 -0.1758,0.69883 -0.331,1.01655 -0.6048,1.28365 -1.9196,2.17218 -3.5154,2.38059 -0.4206,0.0548 -0.8549,0.10505 -1.2488,0.25094 -0.2951,0.10888 -0.5512,0.25733 -0.7643,0.43512 -0.6184,0.5593 -0.8332,1.38786 -0.5461,2.22618 0.1182,0.31263 0.2551,0.56228 0.4393,0.80559 0.2216,0.29262 0.4666,0.57121 0.7256,0.83152 0.362,0.36365 0.7245,0.72689 1.0868,1.09013 1.2871,1.29004 2.575,2.5758 3.8612,3.86244 0.2221,0.22202 0.4445,0.44448 0.6491,0.64948 0.7822,0.78262 0.9506,1.71068 0.5299,2.54434 -0.039,0.0719 -0.083,0.14334 -0.131,0.21479 -0.1059,0.16333 -0.2305,0.31688 -0.3773,0.46405 -0.3186,0.319 -0.6375,0.63798 -0.9566,0.957 -0.9684,0.97017 -1.9369,1.94035 -2.9075,2.90842 -0.4479,0.44957 -0.8958,0.89914 -1.3462,1.34659 l -0.1242,0.1259 c -0.1272,0.12634 -0.2548,0.25224 -0.3819,0.37855 -0.034,0.0345 -0.1395,0.13994 -0.3063,0.3071 l -0.1216,0.11866 c -0.2293,0.22373 -0.5104,0.41682 -0.8014,0.55124 -0.4738,0.2182 -0.8774,0.1765 -1.1585,-0.10635 -0.1251,-0.1242 -0.2263,-0.29602 -0.2986,-0.51379 -0.1187,-0.35771 -0.1468,-0.74901 -0.1906,-1.12841 -0.145,-1.25856 -0.5989,-2.35421 -1.4508,-3.20744 -0.1905,-0.19097 -0.4015,-0.36961 -0.6328,-0.53464 z"
       inkscape:connector-curvature="0"
       style="fill:none;stroke:#1c62b7;stroke-width:3;stroke-miterlimit:4;stroke-dasharray:none;stroke-opacity:1" />
    <circle
       style="opacity:1;fill:none;fill-opacity:1;stroke:#1c62b7;stroke-width:1.92487288;stroke-miterlimit:4;stroke-dasharray:none;stroke-opacity:1"
       id="path4859"
       cx="119.26119"
       cy="969.61487"
       r="35.037563" />
  </g>
</svg>
