<?xml version="1.0" encoding="UTF-8" standalone="no"?>
<!-- Created with Inkscape (http://www.inkscape.org/) -->

<svg
   xmlns:dc="http://purl.org/dc/elements/1.1/"
   xmlns:cc="http://creativecommons.org/ns#"
   xmlns:rdf="http://www.w3.org/1999/02/22-rdf-syntax-ns#"
   xmlns:svg="http://www.w3.org/2000/svg"
   xmlns="http://www.w3.org/2000/svg"
   xmlns:sodipodi="http://sodipodi.sourceforge.net/DTD/sodipodi-0.dtd"
   xmlns:inkscape="http://www.inkscape.org/namespaces/inkscape"
   width="23.509022mm"
   height="18.503901mm"
   viewBox="0 0 83.299683 65.565002"
   id="svg5070"
   version="1.1"
   inkscape:version="0.91 r13725"
   sodipodi:docname="icon_financial.svg">
  <defs
     id="defs5072" />
  <sodipodi:namedview
     id="base"
     pagecolor="#ffffff"
     bordercolor="#666666"
     borderopacity="1.0"
     inkscape:pageopacity="0.0"
     inkscape:pageshadow="2"
     inkscape:zoom="4.8102564"
     inkscape:cx="61.901486"
     inkscape:cy="25.429335"
     inkscape:document-units="px"
     inkscape:current-layer="layer1"
     showgrid="false"
     fit-margin-top="0"
     fit-margin-left="0"
     fit-margin-right="0"
     fit-margin-bottom="0"
     inkscape:window-width="1366"
     inkscape:window-height="705"
     inkscape:window-x="-8"
     inkscape:window-y="-8"
     inkscape:window-maximized="1" />
  <metadata
     id="metadata5075">
    <rdf:RDF>
      <cc:Work
         rdf:about="">
        <dc:format>image/svg+xml</dc:format>
        <dc:type
           rdf:resource="http://purl.org/dc/dcmitype/StillImage" />
        <dc:title></dc:title>
      </cc:Work>
    </rdf:RDF>
  </metadata>
  <g
     inkscape:label="Layer 1"
     inkscape:groupmode="layer"
     id="layer1"
     transform="translate(-78.407726,-938.2874)">
    <path
       inkscape:connector-curvature="0"
       d="m 120.17772,981.93339 0,-6.70899 c 1.341,0.169 2.513,0.824 3.15,1.8 0.303,0.462 0.921,0.591 1.385,0.289 0.462,-0.303 0.592,-0.922 0.289,-1.385 -0.998,-1.524 -2.807,-2.523 -4.824,-2.712 l 0,-3.174 c 0,-0.553 -0.447,-1 -1,-1 -0.553,0 -1,0.447 -1,1 l 0,3.254 c -2.845,0.517 -4.986,2.67 -4.986,5.242 0,2.57099 2.142,4.72499 4.986,5.23999 l 0,6.679 c -1.077,-0.269 -1.995,-0.861 -2.532,-1.685 -0.302,-0.462 -0.921,-0.592 -1.384,-0.291 -0.463,0.303 -0.593,0.922 -0.291,1.385 0.894,1.369 2.442,2.309 4.207,2.627 l 0,3.262 c 0,0.553 0.447,1 1,1 0.553,0 1,-0.447 1,-1 l 0,-3.17 c 3.146,-0.297 5.603,-2.571 5.603,-5.326 0,-2.755 -2.456,-5.03 -5.603,-5.326 z m -2,-0.213 c -1.726,-0.437 -2.986,-1.689 -2.986,-3.18199 0,-1.493 1.26,-2.747 2.986,-3.184 l 0,6.36599 z m 2,8.846 0,-6.613 c 2.038,0.264 3.603,1.64 3.603,3.307 0,1.667 -1.565,3.042 -3.603,3.306 z m 29.567,-23.53899 0,-0.754 c 0,-15.432 -12.554,-27.986 -27.985,-27.986 l -0.224,0 c -13.083,0 -24.140997,8.7 -27.144994,21.249 -9.021,1.045 -15.983,8.78 -15.983,17.931 l 0,0.551 c 0,9.92699 8.077,18.00199 18.003997,18.00199 l 7.675997,0 c 3.712,4.75701 9.482,7.83201 15.969,7.83201 6.487,0 12.258,-3.075 15.97,-7.83201 l 11.514,0 c 7.811,0 14.165,-6.354 14.165,-14.164 l 0,-0.758 c 0.109,-7.04899 -5.077,-13.05699 -11.961,-14.07099 z m -14.907,27.24499 c -0.117,0.102 -0.215,0.222 -0.275,0.367 -3.34,4.373 -8.592,7.21201 -14.507,7.21201 -5.913,0 -11.163,-2.83701 -14.503,-7.20701 -0.061,-0.149 -0.16,-0.271 -0.28,-0.375 -2.18,-3.008 -3.481,-6.691 -3.481,-10.682 0,-0.761 0.047,-1.525 0.14,-2.271 1.129,-9.11799 8.921,-15.99399 18.125,-15.99399 2.359,0 4.652,0.441 6.814,1.313 6.956,2.798 11.451,9.452 11.451,16.95299 0,3.991 -1.303,7.676 -3.484,10.684 z m 24.866,-12.417 c 0,6.707 -5.457,12.164 -12.165,12.164 l -10.141,0 c 1.843,-3.052 2.924,-6.613 2.924,-10.432 0,-8.32199 -4.987,-15.70499 -12.704,-18.80899 -2.4,-0.967 -4.944,-1.457 -7.562,-1.457 -10.211,0 -18.856,7.63 -20.108997,17.74799 -0.103,0.827 -0.155,1.675 -0.155,2.518 0,3.818 1.080997,7.38 2.923997,10.432 l -6.303997,0 c -8.824997,0 -16.003997,-7.179 -16.003997,-16.00199 l 0,-0.551 c 0,-8.358 6.533,-15.389 14.872997,-16.007 0.443,-0.033 0.812,-0.354 0.904,-0.789 2.549,-12.001 12.973997,-20.383 25.350997,-20.383 l 0.224,0 c 14.328,0 25.985,11.657 25.985,25.986 l 0,1.646 c 0,0.521 0.4,0.955 0.92,0.997 6.29,0.505 11.14,5.842 11.04,12.16499 l 0,0.774 z"
       id="path4814"
       style="fill:#1c62b7;fill-opacity:1" />
    <path
       inkscape:connector-curvature="0"
       d="m 120.23162,982.04209 0,-6.70902 c 1.341,0.169 2.513,0.824 3.15,1.8 0.303,0.462 0.921,0.591 1.385,0.289 0.462,-0.303 0.592,-0.922 0.289,-1.385 -0.998,-1.524 -2.807,-2.523 -4.824,-2.712 l 0,-3.174 c 0,-0.553 -0.447,-1 -1,-1 -0.553,0 -1,0.447 -1,1 l 0,3.254 c -2.845,0.517 -4.986,2.67 -4.986,5.242 0,2.57102 2.142,4.72502 4.986,5.24002 l 0,6.679 c -1.077,-0.269 -1.995,-0.861 -2.532,-1.685 -0.302,-0.462 -0.921,-0.592 -1.384,-0.291 -0.463,0.303 -0.593,0.922 -0.291,1.385 0.894,1.369 2.442,2.309 4.207,2.627 l 0,3.262 c 0,0.553 0.447,1 1,1 0.553,0 1,-0.447 1,-1 l 0,-3.17 c 3.146,-0.297 5.603,-2.571 5.603,-5.326 0,-2.755 -2.456,-5.03 -5.603,-5.326 z m -2,-0.213 c -1.726,-0.437 -2.986,-1.689 -2.986,-3.18202 0,-1.493 1.26,-2.747 2.986,-3.184 z m 2,8.846 0,-6.613 c 2.038,0.264 3.603,1.64 3.603,3.307 0,1.667 -1.565,3.042 -3.603,3.306 z"
       id="path4814-6"
       sodipodi:nodetypes="ccccccssscsccccccssscsccsccccsc"
       style="stroke:#1c62b7;stroke-opacity:1;fill:#1c62b7;fill-opacity:1" />
  </g>
</svg>
