<svg xmlns="http://www.w3.org/2000/svg" viewBox="0 0 720 285">
  <style type="text/css">
    .st0 {
      fill: #124C8F;
    }
    .st1 {
      fill: #333;
    }
    .st2 {
      fill: none;
      stroke: #003366;
      stroke-width: 0.25;
    }
  </style>
  <polygon points="76.8 121.2 153.3 121.2 153.3 195.1 76.8 195.1 76.8 284.2 0 284.2 0 1.5 158 1.5 158 75.4 76.8 75.4 " class="st1"/>
  <path d="M410.3 142.7C410.3 13.2 294.1 1.5 246 1.5H168.6V284H246l-0.1-73.6V74.2c47.6 0 88.1 17.6 88.1 68 0 50.4-40.5 68-88.1 68L246 284c59.8 0 164.3-11.5 164.3-141.3z" class="st1"/>
  <rect height="283.3" width="76.8" class="st1" y="0.9" x="423.6"/>
  <path
    d="m657.2 209.4c-36.9 0-67.4-30.1-67.4-66.9 0-36.8 30.5-66.9 67.4-66.9 33.6 0 51.2 17.9 62.8 41.5V15.6c0 0-34-15.3-65.7-15.3-70.4 0-146.7 64.7-146.7 142.2 0 94.8 72.7 142.2 146.7 142.2 31.7 0 65.7-15.2 65.7-15.2V168.9c-13.9 23.9-29.4 40.5-62.8 40.5z"
    class="st1"/>
  <polygon class="st1" points="644.8 109.5 644.8 117.1 643.1 117.1 643.1 111.3 642.5 111.3 643.2 109.5 "/>
  <path
    class="st1"
    d="m648.6 111.8c0 1.6 1.5 2.9 3.3 2.9 0.7 0 1.4-0.2 2-0.6-1 2.6-3.7 1.5-4.3 1.3l-0.7 1.4c0.9 0.9 6.7 1.5 6.7-4.1 0-0.6-0.5-3.7-3.7-3.7v1.4c0.9 0 1.9 0.7 1.9 1.5 0 0.8-0.9 1.5-1.9 1.5-0.9 0-1.7-0.7-1.7-1.5 0-0.8 0.8-1.5 1.7-1.5V109c-1.8 0-3.3 1.3-3.3 2.8z"/>
  <path
    class="st1"
    d="m660.7 117.5c-1.7 0-2.7-0.8-3-1.1l1-1c0.5 0.3 1.3 0.8 1.8 0.8 0.6 0 1.6-0.2 1.6-1.1 0-0.4-0.4-1.1-2-0.9v-1.3c1.7 0.1 2.1-0.5 2.1-1 0-0.5-0.6-1-1.4-1-0.6 0-1.2 0.3-1.7 0.9l-1.1-1.1c0.5-0.8 1.5-1.3 2.7-1.3 1.7 0 2.9 1 2.9 2.3 0 0.7-0.3 1.3-0.9 1.7 0.7 0.4 0.9 1.2 0.9 1.7 0.1 1.2-1.1 2.4-2.9 2.4z"/>
  <path
    class="st1"
    d="m669 117.5c-1.7 0-2.7-0.8-3-1.1l1-1c0.5 0.3 1.3 0.8 1.8 0.8 0.6 0 1.6-0.2 1.6-1.1 0-0.4-0.4-1.1-2-0.9v-1.3c1.7 0.1 2.1-0.5 2.1-1 0-0.5-0.6-1-1.4-1-0.6 0-1.2 0.3-1.7 0.9l-1.1-1.1c0.5-0.8 1.5-1.3 2.7-1.3 1.7 0 3 1 3 2.3 0 0.7-0.3 1.3-0.9 1.7 0.6 0.4 0.9 1.2 0.9 1.7 0 1.2-1.2 2.4-3 2.4z"/>
  <path
    class="st1"
    d="M644.6 167.2V163h-0.8v5h2.7v-1.9h1.4v1.9h2.7v-5h1.3c1.5 0 1.5 0.8 2.5 0.8 0.7 0 1-0.8 1.5-0.8 0.5 0 0.7 1 1.4 1 0.7 0 0.9-1 1.4-1 0.5 0 0.8 0.8 1.5 0.8 1 0 1.3-0.8 2.8-0.8 0.8 0 1.3 0.4 1.3 1.3 0 1.7 1.3 3 3 3 1.7 0 3-1.3 3-3V160c0-1.7-1.3-3-3-3v1c1 0 1.8 0.8 1.8 1.8 0 1.6-0.7 2.3-0.7 2.3 0 0 0.7 0.7 0.7 2.3 0 1-0.8 1.8-1.8 1.8-1 0-1.8-0.8-1.8-1.8 0-1.6 0.7-2.3 0.7-2.3 0 0-0.7-0.7-0.7-2.3 0-1 0.8-1.8 1.8-1.8v-1c-1.7 0-3 1.3-3 3 0 1-0.5 1.4-1.3 1.4-1.5 0-1.8-0.8-2.8-0.8-0.8 0-1 0.7-1.5 0.7-0.5 0-0.7-0.9-1.4-0.9-0.7 0-0.9 0.9-1.4 0.9-0.5 0-0.8-0.7-1.5-0.7-1 0-1 0.8-2.5 0.8-1.5 0-9.4 0-9.4 0v1.6h1.3 0.8 5.2v4.2h-1.1v-1.9h-3v1.9z"/>
  <path class="st1" d="m647.3 90.3 4.6 7.9c-0.7 0.1-1.4 0.2-2.1 0.3l-0.8-1.4-2.5 0.6 0.2-2 1.4-0.3-1.2-2-0.2 2.3-0.2 2-0.1 1.7c-0.7 0.1-1.4 0.3-2 0.6l0.7-9.1z"/>
  <path class="st1" d="m695.4 105.8-2.6 2.3c-0.3 0.3-0.4 0.8-0.1 1.1l1.9 2.2-1.1 1-2.4-2.8-1.4 1.2 3 3.4c0.4 0.4 1 0.5 1.4 0.1l2.6-2.2c0.3-0.3 0.4-0.8 0.1-1.1l-1.9-2.2 1.1-1 2.5 2.8 1.4-1.2-3.1-3.5c-0.3-0.4-1-0.5-1.4-0.1z"/>
  <path class="st1" d="m617.7 123c-0.2 0.5-0.5 1.1-0.8 1.6l-7.7-3.8 2.4-4.9 1.7 0.9-1.6 3.2 1.3 0.7 1.4-2.7 1.7 0.9-1.3 2.7z"/><path class="st1" d="m693.1 102.3c0.5 0.4 0.6 1.1 0.2 1.6l-4 4.9c-0.4 0.5-1.1 0.6-1.7 0.2-0.7-0.6-1.4-1.2-1.6-1.4-0.2-0.2-0.9-0.7-1.6-1.2-0.5-0.4-0.6-1.2-0.2-1.7l4-4.9c0.4-0.5 1.1-0.6 1.7-0.2l-0.6 1.9-3.1 3.8 2.1 1.7 3.1-3.8-2.1-1.7 0.6-1.9z"/>
  <path
    class="st1"
    d="m638.9 98.5-1.7 0.8-0.8-1.7 1.8-0.8c0.2-0.1 0.3-0.4 0.2-0.6l-0.2-0.5c-0.1-0.2-0.4-0.3-0.6-0.2l-1.9 0.8 0.6 1.3 0.8 1.7 1.4 3c-0.7 0.3-1.2 0.6-1.8 0.9l-3.5-7.9 5.1-2.3c0.4-0.2 0.9 0 1.1 0.4l1.2 2.6c0.2 0.4 0 0.8-0.4 1 0 0 0 0 0 0.1 0 0 0 0 0.1 0 0.4-0.2 0.8 0 1 0.4 0.2 0.5 0.9 2.1 1 2.2 0.1 0.2 0.2 0.6 0.8 0.5l0.1 0.1c-0.6 0.2-1.3 0.5-2 0.8-0.3-0.1-0.4-0.3-0.6-0.6-0.1-0.2-0.5-1.3-0.7-1.7-0.2-0.3-0.6-0.5-1-0.3z"/>
  <path class="st1" d="m659 97.8v-1.9l-3.5 0.1-0.3-6.7-1.8 0.1 0.3 8.6c1.9-0.1 3.6-0.2 5.3-0.2"/>
  <path class="st1" d="m621.7 113.3 1.5 1.1c-1.1 1.3-2.1 2.7-3.1 4.3l-7-5 3.2-4.4 1.5 1.1-2.1 2.9 1.2 0.9 1.8-2.5 1.5 1.1-1.8 2.5 1.2 0.9z"/>
  <path class="st1" d="m624.4 113-6.2-6.2 0.8-0.8 1.8 0.8 3.4 3.5 1.9-1.9-3.5-3.5-1.9 1.9-1.7-0.8 2.9-2.9c0.5-0.5 1.2-0.5 1.7 0l4.5 4.5c0.5 0.5 0.5 1.2 0 1.7-0.7 0.7-1.4 1.3-1.6 1.4-0.2 0.2-1.5 1.6-2.1 2.3z"/>
  <path class="st1" d="m633.8 102.7 1 1.6c-1.5 0.9-2.9 1.9-4.4 3l-4.9-7.1 4.5-3.1 1 1.6-2.9 2 0.8 1.2 2.5-1.7 1 1.6-2.5 1.7 0.9 1.3z"/>
  <path class="st1" d="m662.8 98 1.5-8.6 1.1 0.2 0.4 1.9-0.9 4.8 2.7 0.5 0.9-4.8-2.6-0.5-0.4-1.9 4 0.7c0.6 0.1 1.1 0.7 1 1.4l-1.1 6.2c-0.1 0.6-0.7 1.1-1.4 1-0.9-0.2-1.8-0.4-2.1-0.4-0.3-0.1-2.2-0.4-3.1-0.5z"/>
  <path class="st1" d="m676.8 99.9-0.7 1.7c-1.6-0.7-3.2-1.3-4.9-1.9l3-8.1 5.1 1.9-0.7 1.8-3.3-1.2-0.5 1.4 2.9 1.1-0.7 1.8-2.8-1.1-0.5 1.4z"/>
  <path class="st1" d="m680.7 100.2 0.9-1.7 1.8 1c0.2 0.1 0.5 0 0.6-0.2l0.3-0.5c0.1-0.2 0-0.5-0.2-0.6l-1.8-1-0.7 1.3-0.9 1.7-1.7 2.9c-0.7-0.3-1.2-0.6-1.8-0.9l4.3-7.6 5 2.8c0.4 0.2 0.5 0.7 0.3 1.1l-1.8 3.3c-0.2 0.4-0.7 0.5-1 0.3z"/>
  <path class="st1" d="m694.7 116.8 7.1-4.8 1 1.5-7.1 4.8c-0.2-0.2-0.3-0.5-0.5-0.8-0.2-0.2-0.4-0.4-0.5-0.7z"/>
  <path class="st1" d="m704.3 119.9-6 3.1c-0.1-0.3-0.3-0.6-0.4-0.8-0.1-0.3-0.3-0.5-0.4-0.8l6-3.1-0.8-1.7 1.7-0.8 2.5 5-1.7 0.8z"/>
  <polygon class="st1" points="607.5 130.4 606.2 128.4 608.4 129.2 609.9 127.4 609.8 129.8 612 130.6 609.8 131.3 609.6 133.6 608.3 131.7 606 132.2 "/>
  <polygon class="st1" points="708.5 130.4 709.7 128.4 707.6 129.2 706.1 127.4 706.2 129.8 704 130.6 706.2 131.3 706.4 133.6 707.7 131.7 710 132.2 "/>
  <path
    class="st1"
    d="m638.2 189.8-0.2 0.5-2.5-1.1 2-4.5 2.5 1.1-0.2 0.5 1.7 0.8 0.5-1.2c0.3-0.6 0-1.3-0.6-1.5-0.8-0.4-1.7-0.7-1.9-0.8-0.2-0.1-1-0.4-1.7-0.8-0.6-0.3-1.3 0-1.6 0.6l-2.6 5.7c-0.3 0.6 0 1.3 0.6 1.6l3.7 1.7c0.6 0.3 1.3 0 1.6-0.6l0.5-1.1z"/>
  <path class="st1" d="m613.3 140.8-8.6-0.5 0.1-1.8 8.6 0.6c0 0.3-0.1 0.6-0.1 0.9 0 0.2 0 0.5 0 0.8z"/>
  <path class="st1" d="m613 151.5-3.4 0.9c-0.4 0.1-0.7 0.5-0.6 1l0.7 2.8-1.5 0.4-0.9-3.6-1.8 0.5 1.1 4.4c0.2 0.5 0.7 0.9 1.2 0.7l3.3-0.8c0.4-0.1 0.7-0.6 0.6-1l-0.7-2.8 1.4-0.4 1 3.6 1.8-0.5-1.2-4.5c0-0.5-0.5-0.8-1-0.7z"/>
  <path class="st1" d="m608.6 148.5 5-0.5c0 0.3 0.1 0.6 0.1 0.9 0 0.3 0.1 0.6 0.1 0.9l-8.6 0.8-0.2-1.8 5-3.8-5.4 0.1v-1.8l8.6-0.2c0 0.3 0 0.6 0 0.9 0 0.3 0 0.6 0 0.9z"/>
  <path class="st1" d="m610.2 166.1c0.3 0.6 1 0.9 1.5 0.6l6.8-3-0.7-1.7-6.2 2.7-1.1-2.5 6.1-2.6-0.7-1.7-6.8 3c-0.6 0.3-0.9 1-0.6 1.6z"/>
  <polygon class="st1" points="620.6 178.8 622.4 177.8 624.4 176.7 623.3 178.8 622.4 177.8 620.6 178.8 622.5 180.6 621.6 182.1 623.1 183.6 627.3 175.4 625.7 173.9 617.6 178.1 619.1 179.6 "/>
  <path
    class="st1"
    d="m622.7 170.3c0.3 0.4 0.2 0.9-0.2 1.1l-2.4 1.6c-0.3 0.2-0.8 0.2-1-0.2H619c0 0 0 0 0 0.1 0.2 0.3 0.2 0.8-0.2 1.1-0.5 0.3-1.9 1.3-2 1.4-0.1 0.1-0.6 0.3-0.4 0.8l-0.1 0.1-1.2-1.8c0-0.3 0.2-0.5 0.5-0.7 0.2-0.2 1.2-0.8 1.6-1 0.3-0.2 0.4-0.6 0.2-1l-1-1.5 1.6-1.1 1.2 1.7c0.1 0.2 0.4 0.3 0.6 0.1l0.5-0.3c0.2-0.1 0.3-0.4 0.1-0.6l-1.2-1.7-1.2 0.8-1.6 1.1-2.7 1.9-1.1-1.6 7.1-4.9c0.8 1.5 1.9 3.3 3 4.6z"/>
  <path class="st1" d="m647.9 188.4 0.5-1.8c-1.7-0.4-3.3-0.9-5.1-1.4l-2.4 8.3 5.2 1.5 0.5-1.8-3.4-1 0.4-1.4 2.9 0.8 0.5-1.8-2.9-0.8 0.4-1.5z"/>
  <path class="st1" d="m631.2 184.7 2.8-4.1c0.2 0.2 0.5 0.3 0.8 0.5 0.2 0.2 0.5 0.3 0.7 0.5l-4.8 7.1-1.5-1 0.2-6.3-3.3 4.3-1.4-1.1 5.3-6.8c0.2 0.2 0.5 0.4 0.7 0.6 0.2 0.2 0.5 0.4 0.7 0.5z"/>
  <path class="st1" d="m662.9 196.1c-0.6 0.1-1.2-0.4-1.3-1l-0.9-6.3c-0.1-0.6 0.4-1.2 1-1.3 0.9-0.1 1.8-0.2 2.1-0.2 0.2 0 1.1-0.2 1.9-0.3 0.6-0.1 1.2 0.3 1.3 1l0.9 6.3c0.1 0.6-0.3 1.2-1 1.3l-0.9-1.7-0.7-4.9-2.7 0.4 0.7 4.9 2.7-0.4 0.9 1.7z"/>
  <path
    class="st1"
    d="m681.6 180.9c0.4-0.2 0.9-0.1 1.1 0.3l1.7 3.3c0.2 0.4 0.1 0.8-0.3 1l-3.3 1.8-0.9-1.7 1.8-1c0.2-0.1 0.3-0.4 0.2-0.6l-0.3-0.5c-0.1-0.2-0.4-0.3-0.6-0.2l-1.8 1 0.7 1.3 0.9 1.7 1.6 3c-0.7 0.4-1.2 0.6-1.7 0.9l-4.1-7.7c1.2-0.4 3.7-1.7 5-2.6z"/>
  <path class="st1" d="m706.7 164.7-6.2-2.7-0.8 1.7-1.7-0.7c0.8-1.4 1.7-3.5 2.2-5.1l1.7 0.8-0.7 1.7 6.2 2.7z"/>
  <path class="st1" d="m657.5 193.9v0.5l-2.7-0.1 0.2-4.9 2.7 0.1v0.5l1.8 0.1v-1.3c0-0.7-0.5-1.2-1.1-1.2-0.9 0-1.8 0-2.1 0-0.2 0-1.1 0-1.9-0.1-0.6-0.1-1.2 0.5-1.2 1.1l-0.2 6.3c0 0.6 0.5 1.2 1.1 1.2l4 0.2c0.7 0 1.2-0.5 1.2-1.1l0.1-1.2z"/>
  <path
    class="st1"
    d="m673.9 184.7c0.4-0.1 0.9 0.1 1 0.6l0.8 2.7c0.1 0.4-0.1 0.8-0.5 0.9 0 0 0 0 0 0.1 0 0 0 0 0.1 0 0.4-0.1 0.8 0.1 1 0.5 0.2 0.6 0.7 2.2 0.7 2.4 0.1 0.2 0.2 0.6 0.7 0.6v0.1l-2.1 0.6c-0.2-0.1-0.4-0.4-0.5-0.7-0.1-0.3-0.4-1.4-0.5-1.8-0.1-0.4-0.5-0.6-0.9-0.4l-1.8 0.5-0.6-1.8 1.9-0.6c0.2-0.1 0.4-0.3 0.3-0.6l-0.2-0.6c-0.1-0.2-0.3-0.4-0.6-0.3l-1.9 0.6 0.4 1.4 0.6 1.8 1 3.2-1.9 0.6-2.5-8.2c1.9-0.4 3.9-1 5.5-1.6z"/>
  <path class="st1" d="m689.8 185.9c-0.5 0.4-1.2 0.3-1.6-0.2l-4-4.9c-0.4-0.5-0.3-1.3 0.2-1.7 0.7-0.6 1.5-1.1 1.7-1.3 0.2-0.1 0.8-0.7 1.4-1.3 0.5-0.5 1.3-0.3 1.7 0.2l4 4.9c0.4 0.5 0.3 1.2-0.2 1.7l-1.7-1-3.1-3.8-2.1 1.7 3.1 3.8 2.1-1.7 1.7 1z"/>
  <path
    class="st1"
    d="m693.4 170.4c0.3-0.3 0.8-0.4 1.1-0.1l2.1 1.9c0.3 0.3 0.3 0.8 0.1 1.1v0.1h0.1c0.3-0.3 0.8-0.3 1.1-0.1 0.5 0.4 1.7 1.5 1.8 1.6 0.1 0.1 0.5 0.4 0.9 0.2l0.1 0.1-1.4 1.6c-0.3 0-0.5-0.1-0.8-0.3-0.2-0.2-1-1-1.4-1.3-0.3-0.2-0.7-0.2-1 0.1l-1.2 1.4-1.4-1.3 1.3-1.5c0.2-0.2 0.2-0.5 0-0.6l-0.4-0.4c-0.2-0.2-0.5-0.1-0.7 0.1l-1.3 1.5 1.1 1 1.4 1.3 2.5 2.2-1.3 1.5-6.4-5.7c1.2-1.5 2.6-3 3.7-4.4z"/>
  <polygon class="st1" points="701.5 171.4 700.2 169.8 698.7 168.1 701 168.6 700.2 169.8 701.5 171.4 702.9 169.2 704.5 169.6 705.6 167.8 696.8 165.6 695.6 167.5 701.5 174.4 702.6 172.6 "/>
  <path class="st1" d="m701.3 154.8 8.2 2.5-0.5 1.7-8.2-2.5c0.1-0.3 0.2-0.6 0.3-0.9 0.1-0.3 0.1-0.5 0.2-0.8z"/>
  <path class="st1" d="m707.9 139.9-5 0.2c0-0.3 0-0.6 0-0.9 0-0.3 0-0.6 0-0.9l8.6-0.3 0.1 1.8-5.3 3.5 5.4 0.2v1.8l-8.6-0.3c0-0.3 0-0.6 0-0.9 0-0.3 0-0.6 0-0.9z"/>
  <path class="st1" d="m710.6 153.3c-0.1 0.6-0.7 1.1-1.3 1l-6.3-1c-0.6-0.1-1.1-0.7-1-1.3 0.1-0.9 0.4-1.8 0.4-2.1 0-0.2 0.1-1.1 0.2-1.9 0.1-0.6 0.7-1.1 1.4-1l6.2 0.9c0.6 0.1 1.1 0.7 1 1.3l-1.9 0.4-4.9-0.8-0.4 2.7 4.9 0.7 0.4-2.6 1.9-0.4z"/>
  <path class="st1" d="m645.3 124.8-3.1 11.9h0.8l2.2-8.4v8.4h0.8v-8.4l2.2 8.4h-5.9c0.5 1.4 2.1 2.2 3.3 2.2 1.2 0 2.8-0.8 3.3-2.2l-3.1-11.9c0 0-0.5 0-0.5 0z"/>
  <path
    class="st1"
    d="m658 119.5 1.4 0.6-0.1 0.2c-0.7 0-0.8 1.3-0.8 1.9 0 0.4 0.4 0.9 1 0.9 0.6 0 1.8-0.6 3.3-0.6 1.6 0 3.2 0.7 4.9 0.7 1.7 0 2.1-0.5 2.5-0.5 0.4 0 1.3 0.2 1.3 0.8 0 0.6-0.9 0.8-1.3 0.8-0.4 0-0.8-0.5-2.5-0.5-1.7 0-3.3 0.7-4.9 0.7-1.6 0-2.7-0.6-3.3-0.6-0.6 0-1 0.5-1 0.9 0 0.4 0.8 1.1 0.8 1.1l-1.3 1.9-1.2-1.9c0 0 0.8-0.7 0.8-1.1 0-0.4-0.3-0.9-1-0.9-0.6 0-1.8 0.6-3.3 0.6-1.6 0-3.2-0.7-4.9-0.7-1.7 0-2.1 0.5-2.5 0.5-0.4 0-1.3-0.2-1.3-0.8 0-0.6 0.9-0.8 1.3-0.8 0.4 0 0.8 0.5 2.5 0.5 1.7 0 3.3-0.7 4.9-0.7 1.6 0 2.7 0.6 3.3 0.6 0.6 0 1-0.5 1-0.9 0-0.6-0.1-1.9-0.8-1.9l-0.1-0.2z"/>
  <path class="st1" d="m670.7 124.8 3.1 11.9H673l-2.2-8.4v8.4H670v-8.4l-2.2 8.4h5.9c-0.5 1.4-2.1 2.2-3.3 2.2-1.2 0-2.8-0.8-3.3-2.2l3.1-11.9c0 0 0.5 0 0.5 0z"/>
  <path d="m658 133.2 25.7 25.2c0.1-0.3 0-0.9-0.1-1.6L658 131.7 632.4 156.8c-0.2 0.7-0.2 1.3-0.1 1.6z" class="st1"/>
  <polygon points="678.6 164.6 679.1 163.7 658 143 636.9 163.7 637.4 164.6 658 144.5 " class="st1"/>
  <path
    d="m688.4 125.3c1.4 0.6 3.6 3.1 2.2 4.5-5.1-1.8-6.7 2.6-6.7 5.2 0 5.8 4.4 8.8 4.4 19.1 0 3.3-0.8 15.8-18 19.8-2.7 0.6-8.5 2.2-12.3 5.7v-1.1c4.2-3.9 12.3-5.3 13.6-5.7 6.4-1.9 16-7.2 16-19 0-7.3-3-12.9-5.8-12.9-1.2 0-0.8 1.4-0.1 2.4 0.4 0.6 0.9 1.5-0.2 1.3-1.1-0.2-2.5 0.1-2.5 1.1 0 0.5 0.6 0.5 0.9 0.3 0.3-0.2 0.7-0.3 1.3-0.3 1.2 0 2.5 0.7 2.5 1.6 0 0.9-1.6 0.5-1.6 1.2 0 0.5 3.9 3.2 3.9 6.5 0 1-0.4 0.6-0.7 0-0.2-0.6-0.9-1.5-1.6-1.5-0.6 0-1 0.2-0.7 0.8 0.3 0.5 1.4 2.2 1.4 4.5 0 2.3-1.7 5.3-2.8 6.6-0.5 0.7-0.7 0.2-0.8 0-0.1-0.2-0.3-1-0.9-1-0.9 0-0.4 4.4-10.5 7.1-2 0.5-7.2 1.8-11.4 5.1-4.3-3.3-9.4-4.5-11.4-5.1-10.2-2.7-9.6-7.1-10.5-7.1-0.5 0-0.8 0.8-0.9 1-0.1 0.2-0.3 0.7-0.8 0-1.1-1.3-2.8-4.3-2.8-6.6 0-2.3 1.1-3.9 1.4-4.5 0.3-0.5-0.1-0.8-0.7-0.8-0.6 0-1.3 0.9-1.6 1.5-0.2 0.6-0.7 1-0.7 0 0-3.3 3.9-6 3.9-6.5 0-0.7-1.6-0.3-1.6-1.2 0-0.9 1.3-1.6 2.5-1.6 0.6 0 1 0.1 1.4 0.3 0.3 0.2 0.9 0.2 0.9-0.3 0-1-1.4-1.3-2.5-1.1-1.1 0.2-0.6-0.7-0.2-1.3 0.7-1 1-2.4-0.1-2.4-2.8 0-5.8 5.7-5.8 12.9 0 11.8 9.6 17.1 16 19 1.3 0.4 9.4 1.8 13.6 5.7v1.1c-3.8-3.6-9.7-5.1-12.4-5.7-17.1-4-18-16.5-18-19.8 0-10.3 4.4-13.3 4.4-19.1 0-2.5-1.6-7-6.7-5.2-1.4-1.4 0.8-3.9 2.2-4.5-0.3-1.3 4-6.7 10.9-6.7 4.5 0 7.9 2.1 12.7 2.1 1.8 0 5-0.8 6.8-1.9v1c-1.8 1.1-5 1.9-6.8 1.9-4.7 0-8.2-2.1-12.7-2.1-3.4 0-6 1.3-7.6 2.7 0.2 0 1.1 0.4 1.2 0.4 0.4 0.3 0.2 0.8-0.4 0.6-0.4-0.1-0.9-0.4-1.4-0.5-0.2 0.2-0.5 0.5-0.6 0.7 1.1 0 1.8 0.3 2.2 0.6 0.5 0.3 0.3 0.8-0.3 0.5-0.6-0.2-1.3-0.6-2.4-0.5-0.2 0.3-0.3 0.6-0.3 0.8l0.3 1.1c-0.9 0-3.3 0.9-2.9 2.4 0.8-0.2 6.6-0.1 6.6 5.8 0 1 0.4 0.9 0.4 0.6 0.6-2.7-1.2-5.7-3.5-6.7-0.9-0.4-0.7-1.2 0.6-0.5 1.2 0.6 3.6 2.5 3.6 5.9 0 0.8-0.2 2.4-0.2 2.4 0 0 0.9-0.9 0.9-3.1 0-3.7-3-6.6-5.5-6.6l-0.3-1.1c1.5-0.2 6.8 1.2 6.8 8.4 0 1.2-0.7 4.9-1.9 6.6 1.4-0.2 4-0.1 1.9 3.5 3.1 0.6 2.3 3.7 1.3 3.7-1.3 0-1.2-0.7-2.4-0.7-0.9 0-1 0.6-0.5 0.8 0.6 0.2 1 0.6 1 1.3 0 1.3-1.9 0.6-3.5 4.4 0.6-0.2 0.9-0.3 1.3-0.3 0.4 0 1.3 0.1 1.3 0.9 0 0.8-1.6 1.9-1.6 5.1 0 1.6 1.7 4.6 2.1 5.1 0.5-0.5 1-0.8 1.5-0.8 1.9 0 1.7 1.5 1.7 1.9 0 0.4 2.2 4.2 8.3 5.7 3 0.7 9.6 2.6 11.9 4.8 2.3-2.2 8.9-4.1 11.9-4.8 6.2-1.5 8.3-5.3 8.3-5.7 0-0.4-0.3-1.9 1.7-1.9 0.6 0 1 0.3 1.5 0.8 0.4-0.6 2.1-3.5 2.1-5.1 0-3.1-1.6-4.3-1.6-5.1 0-0.8 0.9-0.9 1.3-0.9 0.4 0 0.7 0.1 1.3 0.3-1.6-3.8-3.5-3.1-3.5-4.4 0-0.7 0.4-1 1-1.3 0.5-0.2 0.4-0.8-0.5-0.8-1.3 0-1.2 0.7-2.4 0.7-1 0-1.7-3.1 1.3-3.7-2.1-3.7 0.6-3.8 1.9-3.5-1.3-1.6-1.9-5.4-1.9-6.6 0-4.3 1.9-6.5 3.7-7.5-0.3-0.4-0.6-0.7-0.9-0.9-0.5-0.5-0.1-0.8 0.4-0.5 0.3 0.2 0.7 0.6 1.1 1.1 0.2-0.1 0.5-0.2 0.7-0.3-0.3-0.4-0.7-0.7-1-1-0.4-0.4-0.1-0.8 0.4-0.6 0.2 0.1 0.7 0.4 1.3 1.4 0.4-0.1 0.8-0.1 1.1-0.1l-0.3 1.1c-2.5 0-5.5 3-5.5 6.6 0 2.2 0.9 3.1 0.9 3.1 0 0-0.2-1.6-0.2-2.4 0-3.4 2.4-5.2 3.6-5.9 1.3-0.7 1.4 0.1 0.6 0.5-2.2 1.1-4.1 4-3.5 6.7 0 0.3 0.4 0.4 0.4-0.6 0-5.9 5.8-6 6.6-5.8 0.5-1.5-2-2.4-2.9-2.4l0.3-1.1c-0.2-1.3-3.8-5.4-9.7-5.4-4.5 0-7.9 2.1-12.7 2.1-1.8 0-5-0.8-6.8-1.9v-1c1.8 1.1 5 1.9 6.8 1.9 4.7 0 8.2-2.1 12.7-2.1 6.8 0.1 11 5.6 10.8 6.8z"
    class="st1"/>
  <path
    d="m658 142 22.2 21.8c1.8 1.4 3.1-3.1 3.4-4.3L658 134.2 632.3 159.3 635 161v-1.3l-0.8-1 1.3-0.4 0.7-1 0.8 1 1.6-0.8v-1.3l-0.8-1 1.2-0.4 0.8-1.1 0.7 1.1 1.6-0.8v-1.3l-0.8-1 1.2-0.4 0.8-1.1 0.8 1.1 1.6-0.8v-1.3l-0.8-1 1.2-0.4 0.8-1.1 0.8 1.1 1.6-0.8v-1.3l-0.8-1 1.2-0.4 0.8-1 0.7 1 1.6-0.8v-1.3l-0.8-1 1.2-0.4 0.8-1.1 0.7 1.1 1.6-0.8v-1.3l-0.8-1 1.2-0.4 0.8-1 0.8 1 1.2 0.4-0.8 1v1.3l0.4 1.2 1.3-0.4 0.7-1.1 0.7 1.1 1.3 0.4-0.8 1v1.3l1.6 0.8 0.8-1 0.8 1 1.2 0.4-0.8 1v1.3l1.6 0.8 0.7-1.1 0.7 1.1 1.3 0.4-0.8 1v1.3l1.6 0.8 0.8-1.1 0.8 1.1 1.2 0.4-0.8 1v1.3l1.6 0.8 0.7-1.1 0.7 1.1 1.2 0.4-0.8 1v1.3l1.6 0.8 0.8-1 0.8 1 1.2 0.4-0.8 1v1.3l-1.2-0.4-1.2 0.4v-1.3l-0.8-1 1.2-0.4-1.6-0.8-1.2-0.4-1.2 0.4v-1.3l-0.8-1 1.2-0.4-1.6-0.8-1.2-0.4-1.2 0.4v-1.3l-0.8-1 1.3-0.4-1.6-0.8-1.2-0.4-1.2 0.4v-1.3l-0.8-1 1.3-0.4-1.6-0.8-1.2-0.4-1.2 0.4v-1.3l-0.8-1 1.2-0.4-1.6-0.8-1.2-0.4-1.2 0.4v-1.3l-0.8-1-0.4-1.2-1.2-0.4-1.2 0.4-1.6 0.8 1.3 0.4-0.8 1v1.3l-1.2-0.4-1.2 0.4-1.6 0.8 1.3 0.4-0.8 1v1.3l-1.2-0.4-1.2 0.4-1.6 0.8 1.2 0.4-0.8 1v1.3l-1.2-0.4-1.2 0.4-1.6 0.8 1.2 0.4-0.8 1v1.3l-1.2-0.4-1.2 0.4-1.6 0.8 1.3 0.4-0.8 1v1.3l-1.2-0.4-1.2 0.4-1.6 0.8 1.3 0.4-0.8 1v1.3l-1.2-0.4-1.2 0.4-2.7-1.7c0.4 1.3 1.7 5.8 3.4 4.3z"
    class="st1"/>
</svg>
