<?xml version="1.0" encoding="UTF-8" standalone="no"?>
<!-- Created with Inkscape (http://www.inkscape.org/) -->

<svg
   xmlns:dc="http://purl.org/dc/elements/1.1/"
   xmlns:cc="http://creativecommons.org/ns#"
   xmlns:rdf="http://www.w3.org/1999/02/22-rdf-syntax-ns#"
   xmlns:svg="http://www.w3.org/2000/svg"
   xmlns="http://www.w3.org/2000/svg"
   xmlns:sodipodi="http://sodipodi.sourceforge.net/DTD/sodipodi-0.dtd"
   xmlns:inkscape="http://www.inkscape.org/namespaces/inkscape"
   width="29.945398mm"
   height="36.322639mm"
   viewBox="0 0 106.10574 128.70227"
   id="svg4337"
   version="1.1"
   inkscape:version="0.92.2 5c3e80d, 2017-08-06"
   sodipodi:docname="logo_mainstreet-bank.svg">
  <defs
     id="defs4339" />
  <sodipodi:namedview
     id="base"
     pagecolor="#ffffff"
     bordercolor="#666666"
     borderopacity="1.0"
     inkscape:pageopacity="0.0"
     inkscape:pageshadow="2"
     inkscape:zoom="1.1337883"
     inkscape:cx="-4.7139365"
     inkscape:cy="50.202158"
     inkscape:document-units="px"
     inkscape:current-layer="layer1"
     showgrid="false"
     fit-margin-top="0"
     fit-margin-left="0"
     fit-margin-right="0"
     fit-margin-bottom="0"
     inkscape:window-width="1440"
     inkscape:window-height="798"
     inkscape:window-x="0"
     inkscape:window-y="1"
     inkscape:window-maximized="1" />
  <metadata
     id="metadata4342">
    <rdf:RDF>
      <cc:Work
         rdf:about="">
        <dc:format>image/svg+xml</dc:format>
        <dc:type
           rdf:resource="http://purl.org/dc/dcmitype/StillImage" />
        <dc:title></dc:title>
      </cc:Work>
    </rdf:RDF>
  </metadata>
  <g
     inkscape:label="Layer 1"
     inkscape:groupmode="layer"
     id="layer1"
     transform="translate(-165.32984,-94.710279)">
    <path
       style="fill:#1c62b7;fill-opacity:1"
       d="m 186.95498,94.710279 c -7.10493,0 -12.82422,5.719301 -12.82422,12.824221 v 61.08398 c 0,7.10492 5.71929,12.82422 12.82422,12.82422 h 62.85351 c 7.10493,0 12.82617,-5.7193 12.82617,-12.82422 V 107.5345 c 0,-7.10492 -5.72124,-12.824221 -12.82617,-12.824221 z m 25.72851,14.892581 h 3.76953 c 0.73091,0 1.32031,0.58939 1.32031,1.32031 v 62.53516 c 0,0.73091 -0.5894,1.32031 -1.32031,1.32031 h -3.76953 c -0.73091,0 -1.31836,-0.5894 -1.31836,-1.32031 v -28.61328 h -18.89257 l -10,-10.56641 10,-10.35742 h 18.89257 v -12.99805 c 0,-0.73092 0.58745,-1.32031 1.31836,-1.32031 z m 6.3125,6.88281 h 25.37695 l 10,10.2832 -10,10.64258 H 220.0331 Z"
       id="rect3394-1"
       inkscape:connector-curvature="0" />
    <g
       id="g841">
      <path
         d="m 166.89523,194.22183 h 3.80737 l 2.1884,7.57007 0.81507,3.26027 0.81506,-3.26027 2.13257,-7.57007 h 3.80737 l 0.82622,15.16247 h -2.42286 l -0.45778,-10.96433 0.0558,-2.93646 q -0.25681,0.77041 -0.53594,1.69712 -0.26797,0.92672 -0.55826,1.9316 -0.27914,0.99371 -0.56943,2.03209 -0.27914,1.02719 -0.56943,2.03207 -0.27914,0.99372 -0.55828,1.92044 -0.26796,0.91556 -0.52477,1.67479 h -2.86947 l -3.41658,-11.32161 0.0447,3.01463 -0.37962,10.91966 h -2.42287 z"
         style="font-style:normal;font-variant:normal;font-weight:normal;font-stretch:normal;font-size:medium;line-height:125%;font-family:Basic;-inkscape-font-specification:Basic;letter-spacing:0px;word-spacing:0px;fill:#4d4d4d;fill-opacity:1;stroke:none;stroke-width:0.36114278px;stroke-linecap:butt;stroke-linejoin:miter;stroke-opacity:1"
         id="path9850"
         inkscape:connector-curvature="0" />
      <path
         d="m 183.16307,206.12404 q 0,-0.92673 0.26796,-1.57431 0.26797,-0.64759 0.78158,-1.0607 0.52477,-0.41312 1.26167,-0.61409 0.74807,-0.21215 1.70829,-0.26798 l 2.48987,-0.13398 v -0.89323 q 0,-0.60292 -0.11171,-0.9937 -0.10046,-0.39079 -0.34613,-0.62526 -0.24563,-0.23447 -0.65875,-0.32379 -0.40195,-0.10046 -1.00488,-0.10046 -0.60292,0 -1.15002,0.13398 -0.53594,0.134 -0.93789,0.29031 -0.48011,0.1898 -0.88205,0.42428 -0.24565,-0.34613 -0.39079,-0.65875 -0.14515,-0.3238 -0.22332,-0.58061 -0.10045,-0.29029 -0.13397,-0.55826 0.53593,-0.26796 1.15002,-0.46893 0.53593,-0.17866 1.22819,-0.3238 0.70341,-0.14515 1.47381,-0.14515 1.27285,0 2.11024,0.2233 0.83741,0.22332 1.32868,0.68108 0.50244,0.44662 0.69224,1.13886 0.20098,0.68109 0.20098,1.61897 v 6.23024 l 0.93788,1.13886 v 0.70341 h -2.06558 l -0.85972,-0.99371 h -0.40195 q -0.0558,0.0558 -0.30147,0.25681 -0.23447,0.18981 -0.61409,0.41312 -0.36846,0.21213 -0.84856,0.37961 -0.46894,0.16749 -1.00487,0.16749 -0.83741,0 -1.51849,-0.24565 -0.68108,-0.25679 -1.17235,-0.71457 -0.48011,-0.46895 -0.74808,-1.10537 -0.2568,-0.64758 -0.2568,-1.41799 z m 2.43403,-0.20098 q 0,0.5136 0.14516,0.85973 0.14514,0.33496 0.40194,0.53593 0.26797,0.20097 0.63643,0.27913 0.37961,0.0782 0.83739,0.0782 0.42428,0 0.79273,-0.10046 0.37962,-0.11171 0.65876,-0.24563 0.32379,-0.14515 0.60293,-0.34613 v -3.00346 l -2.24423,0.14514 q -0.52477,0.0335 -0.88206,0.17865 -0.34613,0.14515 -0.55826,0.37962 -0.21214,0.23447 -0.30146,0.55826 -0.0893,0.31264 -0.0893,0.68109 z"
         style="font-style:normal;font-variant:normal;font-weight:normal;font-stretch:normal;font-size:medium;line-height:125%;font-family:Basic;-inkscape-font-specification:Basic;letter-spacing:0px;word-spacing:0px;fill:#4d4d4d;fill-opacity:1;stroke:none;stroke-width:0.36114278px;stroke-linecap:butt;stroke-linejoin:miter;stroke-opacity:1"
         id="path9852"
         inkscape:connector-curvature="0" />
      <path
         d="m 196.38278,196.04177 q -0.31262,0 -0.59176,-0.11171 -0.26796,-0.11159 -0.48011,-0.30147 -0.20097,-0.18981 -0.32379,-0.43544 -0.12282,-0.25681 -0.12282,-0.5471 0,-0.30146 0.12282,-0.55826 0.12282,-0.25681 0.32379,-0.44662 0.21215,-0.1898 0.48011,-0.2903 0.27914,-0.11159 0.59176,-0.11159 0.31263,0 0.59176,0.11159 0.27913,0.10046 0.48011,0.2903 0.21214,0.18981 0.33496,0.44662 0.12281,0.2568 0.12281,0.55826 0,0.29029 -0.12281,0.5471 -0.12282,0.24563 -0.33496,0.43544 -0.20098,0.18982 -0.48011,0.30147 -0.27913,0.11171 -0.59176,0.11171 z m -1.28401,1.9316 h 2.32238 v 9.53516 l 0.65875,0.46894 v 1.40683 h -0.63642 l -0.0223,-0.0223 v 0.0223 q -1.10536,0 -1.71945,-0.44661 -0.60292,-0.44661 -0.60292,-1.47382 v -9.4905 z"
         style="font-style:normal;font-variant:normal;font-weight:normal;font-stretch:normal;font-size:medium;line-height:125%;font-family:Basic;-inkscape-font-specification:Basic;letter-spacing:0px;word-spacing:0px;fill:#4d4d4d;fill-opacity:1;stroke:none;stroke-width:0.36114278px;stroke-linecap:butt;stroke-linejoin:miter;stroke-opacity:1"
         id="path9854"
         inkscape:connector-curvature="0" />
      <path
         d="m 201.02755,200.01661 -0.88207,-0.90438 v -1.26169 h 2.05442 l 0.96022,0.8709 0.32379,-0.0669 q 0.0782,-0.067 0.35729,-0.23448 0.29029,-0.16747 0.70341,-0.33495 0.42428,-0.16747 0.96022,-0.2903 0.53593,-0.13398 1.12769,-0.13398 0.93789,0 1.66363,0.27913 0.73692,0.27913 1.23935,0.8039 0.50243,0.51361 0.75924,1.23935 0.2568,0.72575 0.2568,1.63013 v 7.77105 H 208.151 v -7.53657 q 0,-1.21702 -0.5136,-1.78646 -0.50244,-0.58059 -1.6078,-0.58059 -0.5471,0 -1.01604,0.10046 -0.46895,0.0893 -0.82623,0.21215 -0.41312,0.13398 -0.77041,0.31262 v 9.27836 h -2.38937 z"
         style="font-style:normal;font-variant:normal;font-weight:normal;font-stretch:normal;font-size:medium;line-height:125%;font-family:Basic;-inkscape-font-specification:Basic;letter-spacing:0px;word-spacing:0px;fill:#4d4d4d;fill-opacity:1;stroke:none;stroke-width:0.36114278px;stroke-linecap:butt;stroke-linejoin:miter;stroke-opacity:1"
         id="path9856"
         inkscape:connector-curvature="0" />
      <path
         d="m 213.34286,208.83721 q 0.0223,-0.25681 0.0782,-0.5806 0.0558,-0.26797 0.14514,-0.63642 0.10046,-0.37962 0.29031,-0.81507 0.60292,0.20097 1.22818,0.35729 0.53593,0.13398 1.17235,0.24563 0.63642,0.11159 1.21701,0.11159 0.88207,0 1.47383,-0.13398 0.60292,-0.13398 0.96022,-0.39079 0.36844,-0.26796 0.52476,-0.65875 0.15632,-0.40195 0.15632,-0.92672 0,-0.59176 -0.16748,-1.00487 -0.15631,-0.41312 -0.49128,-0.71458 -0.32379,-0.30146 -0.8374,-0.51361 -0.5136,-0.21213 -1.21701,-0.41311 -1.22818,-0.33496 -2.07675,-0.72575 -0.84856,-0.40194 -1.38449,-0.91555 -0.52477,-0.5136 -0.75925,-1.16118 -0.23446,-0.65876 -0.23446,-1.49616 0,-1.20586 0.36846,-2.06558 0.37961,-0.85973 1.0607,-1.40683 0.69224,-0.5471 1.66363,-0.8039 0.98255,-0.2568 2.1884,-0.2568 0.92671,0 1.61896,0.14515 0.70341,0.14515 1.18352,0.31263 0.55827,0.20098 0.97139,0.45777 -0.0335,0.25681 -0.134,0.55827 -0.0893,0.25681 -0.24563,0.60292 -0.15631,0.34613 -0.43545,0.74807 -0.33496,-0.2233 -0.78156,-0.40194 -0.39079,-0.15631 -0.94906,-0.27914 -0.54709,-0.13397 -1.27285,-0.13397 -0.79273,0 -1.33983,0.12281 -0.53593,0.12283 -0.88206,0.39079 -0.34612,0.25681 -0.50243,0.65875 -0.14516,0.39079 -0.14516,0.93789 0,0.61409 0.15633,1.0272 0.15631,0.40196 0.50244,0.69225 0.34611,0.27914 0.89321,0.49127 0.55827,0.21214 1.33984,0.43545 1.17236,0.32379 1.99859,0.69225 0.82623,0.36846 1.33984,0.85973 0.52477,0.49127 0.75923,1.17236 0.24563,0.66991 0.24563,1.61896 0,1.17236 -0.30145,2.04324 -0.30147,0.85974 -0.96022,1.44033 -0.65875,0.5806 -1.69712,0.85973 -1.03838,0.2903 -2.50102,0.2903 -0.8709,0 -1.6413,-0.13399 -0.77041,-0.12281 -1.33985,-0.27912 -0.68108,-0.18982 -1.23934,-0.42428 z"
         style="font-style:normal;font-variant:normal;font-weight:normal;font-stretch:normal;font-size:medium;line-height:125%;font-family:Basic;-inkscape-font-specification:Basic;letter-spacing:0px;word-spacing:0px;fill:#4d4d4d;fill-opacity:1;stroke:none;stroke-width:0.36114278px;stroke-linecap:butt;stroke-linejoin:miter;stroke-opacity:1"
         id="path9858"
         inkscape:connector-curvature="0" />
      <path
         d="m 226.23878,199.70399 h -1.46266 q -0.0107,-0.12282 -0.0223,-0.26797 -0.0107,-0.12282 -0.0223,-0.2903 0,-0.16747 0,-0.36845 0,-0.20097 0.0107,-0.36845 0.0107,-0.17865 0.0335,-0.43545 h 1.46266 v -1.77529 l 1.284,-1.45148 h 0.99372 v 3.22677 h 3.15978 q 0.0223,0.11159 0.0335,0.26796 0.0223,0.15631 0.0223,0.30147 0,0.2568 -0.0558,0.46894 -0.0447,0.21214 -0.10046,0.36845 -0.0669,0.17865 -0.15631,0.3238 h -2.90299 v 6.47587 q 0,0.81506 0.26798,1.18352 0.27912,0.36846 0.88205,0.36846 0.25681,0 0.53593,-0.0558 0.2903,-0.0669 0.5471,-0.15631 0.2903,-0.10046 0.59176,-0.22331 0.22331,0.2903 0.34613,0.56943 0.13398,0.27914 0.18981,0.50244 0.0669,0.25681 0.0782,0.48011 -0.31262,0.21215 -0.70341,0.37962 -0.34612,0.14515 -0.82624,0.2568 -0.4801,0.12283 -1.10536,0.12283 -0.87089,0 -1.46265,-0.22332 -0.58059,-0.21213 -0.94905,-0.63642 -0.35729,-0.43544 -0.5136,-1.07187 -0.15631,-0.64758 -0.15631,-1.48498 v -6.48704 z"
         style="font-style:normal;font-variant:normal;font-weight:normal;font-stretch:normal;font-size:medium;line-height:125%;font-family:Basic;-inkscape-font-specification:Basic;letter-spacing:0px;word-spacing:0px;fill:#4d4d4d;fill-opacity:1;stroke:none;stroke-width:0.36114278px;stroke-linecap:butt;stroke-linejoin:miter;stroke-opacity:1"
         id="path9860"
         inkscape:connector-curvature="0" />
      <path
         d="m 235.46132,197.85054 1.15002,1.20586 q 0.12283,-0.27913 0.31264,-0.52477 0.20096,-0.2568 0.45777,-0.44661 0.26796,-0.1898 0.59176,-0.30147 0.33496,-0.11159 0.72574,-0.11159 0.3238,0 0.62526,0.0558 0.30147,0.0447 0.65875,0.16748 0.0107,0.0223 0.0223,0.17864 0.0223,0.15632 0.0223,0.39078 0,0.17865 -0.0223,0.42429 -0.0223,0.23447 -0.0782,0.49127 -0.0447,0.24563 -0.14514,0.49128 -0.0893,0.24563 -0.23448,0.42427 l -0.21213,0.0558 q -0.22331,-0.11159 -0.50244,-0.1898 -0.26798,-0.0782 -0.55827,-0.0782 -0.44661,0 -0.74807,0.0669 -0.30147,0.0558 -0.49127,0.12283 -0.22332,0.0782 -0.3573,0.17864 v 8.93223 h -2.38936 v -9.36768 l -0.88207,-0.90438 v -1.26169 h 2.05442 z"
         style="font-style:normal;font-variant:normal;font-weight:normal;font-stretch:normal;font-size:medium;line-height:125%;font-family:Basic;-inkscape-font-specification:Basic;letter-spacing:0px;word-spacing:0px;fill:#4d4d4d;fill-opacity:1;stroke:none;stroke-width:0.36114278px;stroke-linecap:butt;stroke-linejoin:miter;stroke-opacity:1"
         id="path9862"
         inkscape:connector-curvature="0" />
      <path
         d="m 241.23378,203.79048 q 0,-1.6078 0.39079,-2.76899 0.39078,-1.16119 1.0942,-1.90926 0.70341,-0.74808 1.67479,-1.0942 0.98254,-0.35729 2.15491,-0.35729 1.08303,0 1.93159,0.36845 0.85973,0.3573 1.45149,1.01605 0.59176,0.65875 0.90438,1.57431 0.31263,0.91555 0.31263,2.02091 0,0.37962 -0.0335,0.70342 -0.0335,0.32379 -0.0782,0.55826 -0.0447,0.27913 -0.10046,0.50244 l -7.32443,-0.0335 q 0.0107,0.99371 0.21214,1.65247 0.20097,0.64758 0.59176,1.0272 0.40195,0.37963 1.00487,0.53594 0.60293,0.14514 1.42917,0.14514 0.70341,0 1.26167,-0.0893 0.55827,-0.0893 0.94906,-0.21213 0.44661,-0.13398 0.80389,-0.31264 0.16749,0.39079 0.25681,0.72576 0.10045,0.33495 0.14515,0.58058 0.0447,0.2903 0.0669,0.5136 -0.36845,0.18982 -0.89322,0.33497 -0.44661,0.12281 -1.09421,0.2233 -0.64758,0.11172 -1.49614,0.11172 -1.33984,0 -2.38938,-0.30147 -1.03836,-0.30147 -1.76412,-0.98255 -0.71457,-0.69224 -1.09419,-1.7976 -0.36846,-1.11653 -0.36846,-2.7355 z m 7.52541,-1.04954 v -0.37961 q 0,-0.70341 -0.17865,-1.23936 -0.16747,-0.54708 -0.46894,-0.91554 -0.30146,-0.36846 -0.71458,-0.55827 -0.41312,-0.1898 -0.89323,-0.1898 -0.70341,0 -1.23934,0.1898 -0.53593,0.17864 -0.90438,0.5806 -0.3573,0.39079 -0.53595,1.01604 -0.17864,0.62526 -0.17864,1.49614 z"
         style="font-style:normal;font-variant:normal;font-weight:normal;font-stretch:normal;font-size:medium;line-height:125%;font-family:Basic;-inkscape-font-specification:Basic;letter-spacing:0px;word-spacing:0px;fill:#4d4d4d;fill-opacity:1;stroke:none;stroke-width:0.36114278px;stroke-linecap:butt;stroke-linejoin:miter;stroke-opacity:1"
         id="path9864"
         inkscape:connector-curvature="0" />
      <path
         d="m 252.89034,203.79048 q 0,-1.6078 0.39079,-2.76899 0.39079,-1.16119 1.0942,-1.90926 0.70341,-0.74808 1.67479,-1.0942 0.98255,-0.35729 2.1549,-0.35729 1.08304,0 1.93161,0.36845 0.85972,0.3573 1.45148,1.01605 0.59176,0.65875 0.90439,1.57431 0.31262,0.91555 0.31262,2.02091 0,0.37962 -0.0335,0.70342 -0.0335,0.32379 -0.0782,0.55826 -0.0447,0.27913 -0.10045,0.50244 l -7.32444,-0.0335 q 0.0107,0.99371 0.21214,1.65247 0.20098,0.64758 0.59177,1.0272 0.40194,0.37963 1.00487,0.53594 0.60292,0.14514 1.42916,0.14514 0.70341,0 1.26167,-0.0893 0.55827,-0.0893 0.94906,-0.21213 0.44661,-0.13398 0.8039,-0.31264 0.16748,0.39079 0.2568,0.72576 0.10046,0.33495 0.14515,0.58058 0.0447,0.2903 0.067,0.5136 -0.36845,0.18982 -0.89322,0.33497 -0.44662,0.12281 -1.0942,0.2233 -0.6476,0.11172 -1.49615,0.11172 -1.33983,0 -2.38937,-0.30147 -1.03838,-0.30147 -1.76412,-0.98255 -0.71458,-0.69224 -1.09421,-1.7976 -0.36844,-1.11653 -0.36844,-2.7355 z m 7.52542,-1.04954 v -0.37961 q 0,-0.70341 -0.17865,-1.23936 -0.16748,-0.54708 -0.46894,-0.91554 -0.30147,-0.36846 -0.71459,-0.55827 -0.41311,-0.1898 -0.89321,-0.1898 -0.70343,0 -1.23935,0.1898 -0.53593,0.17864 -0.90439,0.5806 -0.35729,0.39079 -0.53594,1.01604 -0.17864,0.62526 -0.17864,1.49614 z"
         style="font-style:normal;font-variant:normal;font-weight:normal;font-stretch:normal;font-size:medium;line-height:125%;font-family:Basic;-inkscape-font-specification:Basic;letter-spacing:0px;word-spacing:0px;fill:#4d4d4d;fill-opacity:1;stroke:none;stroke-width:0.36114278px;stroke-linecap:butt;stroke-linejoin:miter;stroke-opacity:1"
         id="path9866"
         inkscape:connector-curvature="0" />
      <path
         d="m 265.71928,199.70399 h -1.46266 q -0.0107,-0.12282 -0.0223,-0.26797 -0.0107,-0.12282 -0.0223,-0.2903 0,-0.16747 0,-0.36845 0,-0.20097 0.0107,-0.36845 0.0107,-0.17865 0.0335,-0.43545 h 1.46265 v -1.77529 l 1.28401,-1.45148 h 0.99372 v 3.22677 h 3.15977 q 0.0223,0.11159 0.0335,0.26796 0.0223,0.15631 0.0223,0.30147 0,0.2568 -0.0558,0.46894 -0.0447,0.21214 -0.10045,0.36845 -0.0669,0.17865 -0.15632,0.3238 h -2.90297 v 6.47587 q 0,0.81506 0.26797,1.18352 0.27913,0.36846 0.88205,0.36846 0.25681,0 0.53594,-0.0558 0.2903,-0.0669 0.5471,-0.15631 0.2903,-0.10046 0.59176,-0.22331 0.22331,0.2903 0.34613,0.56943 0.13398,0.27914 0.1898,0.50244 0.067,0.25681 0.0782,0.48011 -0.31264,0.21215 -0.70341,0.37962 -0.34613,0.14515 -0.82624,0.2568 -0.48011,0.12283 -1.10536,0.12283 -0.8709,0 -1.46266,-0.22332 -0.5806,-0.21213 -0.94904,-0.63642 -0.3573,-0.43544 -0.51361,-1.07187 -0.15632,-0.64758 -0.15632,-1.48498 v -6.48704 z"
         style="font-style:normal;font-variant:normal;font-weight:normal;font-stretch:normal;font-size:medium;line-height:125%;font-family:Basic;-inkscape-font-specification:Basic;letter-spacing:0px;word-spacing:0px;fill:#4d4d4d;fill-opacity:1;stroke:none;stroke-width:0.36114278px;stroke-linecap:butt;stroke-linejoin:miter;stroke-opacity:1"
         id="path9868"
         inkscape:connector-curvature="0" />
      <path
         d="m 165.32989,215.03113 h 3.08594 q 0.48757,0 0.91343,0.13579 0.42586,0.1296 0.73445,0.40116 0.3086,0.2654 0.48759,0.66656 0.17897,0.39501 0.17897,0.91962 0,0.27773 -0.0988,0.54929 -0.0925,0.27156 -0.26538,0.51226 -0.16664,0.23454 -0.395,0.4197 -0.22836,0.17898 -0.49376,0.27156 0.27774,0.0494 0.55548,0.20985 0.27773,0.16046 0.49992,0.42585 0.22218,0.26539 0.35797,0.62336 0.14195,0.3518 0.14195,0.77765 0,0.58633 -0.17899,1.04305 -0.17281,0.45672 -0.5246,0.77765 -0.3518,0.31477 -0.87023,0.48141 -0.51845,0.16665 -1.20352,0.16665 h -2.92547 z m 2.77734,7.33219 q 0.33946,0 0.61101,-0.074 0.27774,-0.074 0.47524,-0.24071 0.1975,-0.16663 0.30241,-0.43202 0.11112,-0.2654 0.11112,-0.64806 0,-0.38882 -0.11112,-0.64804 -0.10495,-0.2654 -0.29624,-0.42585 -0.18516,-0.16665 -0.44438,-0.23454 -0.25304,-0.0679 -0.54929,-0.0679 h -1.47508 v 2.77117 z m 0.36414,-3.70313 q 0.43203,-0.12961 0.62953,-0.49375 0.20368,-0.37031 0.20368,-0.9875 0,-0.52461 -0.3086,-0.81469 -0.3086,-0.29624 -0.85172,-0.29624 h -1.41336 v 2.59218 z"
         style="font-style:normal;font-variant:normal;font-weight:normal;font-stretch:normal;font-size:medium;line-height:125%;font-family:Basic;-inkscape-font-specification:Basic;letter-spacing:0px;word-spacing:0px;fill:#4d4d4d;fill-opacity:1;stroke:none;stroke-width:0.36114278px;stroke-linecap:butt;stroke-linejoin:miter;stroke-opacity:1"
         id="path9881"
         inkscape:connector-curvature="0" />
      <path
         d="m 173.93348,215.03113 h 2.10461 l 2.50578,8.38141 h -1.40101 l -0.76532,-2.56133 h -2.70945 l -0.72828,2.56133 h -1.43806 z m 2.15399,4.74617 -1.12946,-4.11047 -1.01836,4.11047 z"
         style="font-style:normal;font-variant:normal;font-weight:normal;font-stretch:normal;font-size:medium;line-height:125%;font-family:Basic;-inkscape-font-specification:Basic;letter-spacing:0px;word-spacing:0px;fill:#4d4d4d;fill-opacity:1;stroke:none;stroke-width:0.36114278px;stroke-linecap:butt;stroke-linejoin:miter;stroke-opacity:1"
         id="path9883"
         inkscape:connector-curvature="0" />
      <path
         d="m 179.45113,215.03113 h 2.21571 l 2.11695,5.23375 0.84555,2.38235 -0.0802,-2.38235 -0.0432,-5.23375 h 1.33312 v 8.38141 h -2.16015 l -2.16633,-5.2461 -0.84555,-2.41937 0.0802,2.41937 0.0432,5.2461 h -1.3393 z"
         style="font-style:normal;font-variant:normal;font-weight:normal;font-stretch:normal;font-size:medium;line-height:125%;font-family:Basic;-inkscape-font-specification:Basic;letter-spacing:0px;word-spacing:0px;fill:#4d4d4d;fill-opacity:1;stroke:none;stroke-width:0.36114278px;stroke-linecap:butt;stroke-linejoin:miter;stroke-opacity:1"
         id="path9885"
         inkscape:connector-curvature="0" />
      <path
         d="m 187.7955,215.03113 h 1.40102 v 3.67227 h 0.12344 l 2.63539,-3.67227 h 1.67875 l -3.17234,4.09196 3.34515,4.28945 h -1.71578 l -2.82054,-3.86977 h -0.074 v 3.86977 h -1.40102 z"
         style="font-style:normal;font-variant:normal;font-weight:normal;font-stretch:normal;font-size:medium;line-height:125%;font-family:Basic;-inkscape-font-specification:Basic;letter-spacing:0px;word-spacing:0px;fill:#4d4d4d;fill-opacity:1;stroke:none;stroke-width:0.36114278px;stroke-linecap:butt;stroke-linejoin:miter;stroke-opacity:1"
         id="path9887"
         inkscape:connector-curvature="0" />
    </g>
  </g>
</svg>
