<?xml version="1.0" encoding="UTF-8" standalone="no"?>
<!-- Created with Inkscape (http://www.inkscape.org/) -->

<svg
   xmlns:dc="http://purl.org/dc/elements/1.1/"
   xmlns:cc="http://creativecommons.org/ns#"
   xmlns:rdf="http://www.w3.org/1999/02/22-rdf-syntax-ns#"
   xmlns:svg="http://www.w3.org/2000/svg"
   xmlns="http://www.w3.org/2000/svg"
   xmlns:sodipodi="http://sodipodi.sourceforge.net/DTD/sodipodi-0.dtd"
   xmlns:inkscape="http://www.inkscape.org/namespaces/inkscape"
   width="113.1931mm"
   height="24.477818mm"
   viewBox="0 0 401.07791 86.732424"
   id="svg4337"
   version="1.1"
   inkscape:version="0.92.2 5c3e80d, 2017-08-06"
   sodipodi:docname="logo-mainstreet-color.svg">
  <defs
     id="defs4339" />
  <sodipodi:namedview
     id="base"
     pagecolor="#ffffff"
     bordercolor="#666666"
     borderopacity="1.0"
     inkscape:pageopacity="0.0"
     inkscape:pageshadow="2"
     inkscape:zoom="1"
     inkscape:cx="88.557714"
     inkscape:cy="40.714286"
     inkscape:document-units="px"
     inkscape:current-layer="layer1"
     showgrid="false"
     fit-margin-top="0"
     fit-margin-left="0"
     fit-margin-right="0"
     fit-margin-bottom="0"
     inkscape:window-width="1440"
     inkscape:window-height="800"
     inkscape:window-x="0"
     inkscape:window-y="1"
     inkscape:window-maximized="1" />
  <metadata
     id="metadata4342">
    <rdf:RDF>
      <cc:Work
         rdf:about="">
        <dc:format>image/svg+xml</dc:format>
        <dc:type
           rdf:resource="http://purl.org/dc/dcmitype/StillImage" />
        <dc:title></dc:title>
      </cc:Work>
    </rdf:RDF>
  </metadata>
  <g
     inkscape:label="Layer 1"
     inkscape:groupmode="layer"
     id="layer1"
     transform="translate(-168.03249,-94.710279)">
    <g
       id="g840">
      <path
         inkscape:connector-curvature="0"
         id="rect3394-1"
         d="m 180.85671,94.710279 c -7.10493,0 -12.82422,5.719301 -12.82422,12.824221 v 61.08398 c 0,7.10492 5.71929,12.82422 12.82422,12.82422 h 62.85351 c 7.10493,0 12.82617,-5.7193 12.82617,-12.82422 V 107.5345 c 0,-7.10492 -5.72124,-12.824221 -12.82617,-12.824221 z m 25.72851,14.892581 h 3.76953 c 0.73091,0 1.32031,0.58939 1.32031,1.32031 v 62.53516 c 0,0.73091 -0.5894,1.32031 -1.32031,1.32031 h -3.76953 c -0.73091,0 -1.31836,-0.5894 -1.31836,-1.32031 v -28.61328 h -18.89257 l -10,-10.56641 10,-10.35742 h 18.89257 v -12.99805 c 0,-0.73092 0.58745,-1.32031 1.31836,-1.32031 z m 6.3125,6.88281 h 25.37695 l 10,10.2832 -10,10.64258 h -24.33984 z"
         style="fill:#1c62b7;fill-opacity:1" />
    </g>
    <g
       id="g837"
       transform="translate(0,17.999987)">
      <path
         d="m 279.63853,100.04256 h 10.54255 l 6.05965,20.96144 2.25691,9.02764 2.25691,-9.02764 5.90506,-20.96144 h 10.54255 l 2.28783,41.98471 h -6.7089 l -1.26758,-30.36008 0.15459,-8.13105 q -0.71108,2.13324 -1.484,4.69931 -0.742,2.56608 -1.54583,5.34857 -0.77291,2.75158 -1.57674,5.62682 -0.77292,2.84432 -1.57675,5.62681 -0.77291,2.75158 -1.54583,5.31765 -0.74199,2.53516 -1.45308,4.63749 h -7.94555 l -9.46048,-31.3494 0.12367,8.34747 -1.05116,30.23641 h -6.7089 z"
         style="font-style:normal;font-variant:normal;font-weight:normal;font-stretch:normal;font-size:medium;line-height:125%;font-family:Basic;-inkscape-font-specification:Basic;letter-spacing:0px;word-spacing:0px;fill:#4d4d4d;fill-opacity:1;stroke:none;stroke-width:1px;stroke-linecap:butt;stroke-linejoin:miter;stroke-opacity:1"
         id="path9850"
         inkscape:connector-curvature="0" />
      <path
         d="m 324.68397,132.99963 q 0,-2.56608 0.742,-4.35924 0.742,-1.79316 2.16416,-2.93707 1.45308,-1.14392 3.49357,-1.70041 2.07141,-0.58742 4.73024,-0.742 l 6.89439,-0.371 v -2.47333 q 0,-1.66949 -0.30916,-2.75157 -0.27825,-1.08208 -0.95842,-1.73133 -0.68016,-0.64925 -1.82407,-0.89658 -1.113,-0.27825 -2.7825,-0.27825 -1.66949,0 -3.1844,0.371 -1.484,0.371 -2.59699,0.80383 -1.32942,0.52558 -2.44241,1.17483 -0.68017,-0.95841 -1.08208,-1.82408 -0.40192,-0.89658 -0.61834,-1.60766 -0.27824,-0.80383 -0.37099,-1.54583 1.48399,-0.742 3.1844,-1.29849 1.484,-0.49467 3.40083,-0.89658 1.94774,-0.40192 4.08098,-0.40192 3.52449,0 5.84323,0.61833 2.31875,0.61833 3.67908,1.88591 1.39124,1.23667 1.91682,3.15349 0.5565,1.88591 0.5565,4.48291 v 17.25144 l 2.59699,3.15349 v 1.94775 h -5.71956 l -2.38058,-2.75158 h -1.11299 q -0.15459,0.15459 -0.83475,0.71108 -0.64925,0.52559 -1.70041,1.14392 -1.02025,0.58741 -2.34966,1.05116 -1.2985,0.46375 -2.78249,0.46375 -2.31875,0 -4.20466,-0.68017 -1.88591,-0.71108 -3.24624,-1.97866 -1.32941,-1.29849 -2.07141,-3.06074 -0.71108,-1.79316 -0.71108,-3.9264 z m 6.73981,-0.5565 q 0,1.42216 0.40192,2.38058 0.40191,0.92749 1.113,1.48399 0.74199,0.5565 1.76224,0.77292 1.05116,0.21641 2.31874,0.21641 1.17483,0 2.19508,-0.27825 1.05116,-0.30916 1.82408,-0.68016 0.89658,-0.40192 1.66949,-0.95842 v -8.31655 l -6.21423,0.40191 q -1.45308,0.0928 -2.44241,0.49467 -0.95841,0.40191 -1.54583,1.05116 -0.58741,0.64925 -0.83474,1.54583 -0.24734,0.86566 -0.24734,1.88591 z"
         style="font-style:normal;font-variant:normal;font-weight:normal;font-stretch:normal;font-size:medium;line-height:125%;font-family:Basic;-inkscape-font-specification:Basic;letter-spacing:0px;word-spacing:0px;fill:#4d4d4d;fill-opacity:1;stroke:none;stroke-width:1px;stroke-linecap:butt;stroke-linejoin:miter;stroke-opacity:1"
         id="path9852"
         inkscape:connector-curvature="0" />
      <path
         d="m 361.28919,105.08196 q -0.86566,0 -1.63858,-0.30916 -0.74199,-0.30917 -1.32941,-0.83475 -0.5565,-0.52558 -0.89658,-1.20575 -0.34008,-0.71108 -0.34008,-1.51491 0,-0.83474 0.34008,-1.545826 0.34008,-0.711081 0.89658,-1.236663 0.58742,-0.525581 1.32941,-0.80383 0.77292,-0.309166 1.63858,-0.309166 0.86567,0 1.63858,0.309166 0.77291,0.278249 1.32941,0.80383 0.58742,0.525582 0.9275,1.236663 0.34008,0.711086 0.34008,1.545826 0,0.80383 -0.34008,1.51491 -0.34008,0.68017 -0.9275,1.20575 -0.5565,0.52558 -1.32941,0.83475 -0.77291,0.30916 -1.63858,0.30916 z m -3.5554,5.34857 h 6.43064 v 26.40275 l 1.82408,1.2985 v 3.89549 h -1.76224 l -0.0618,-0.0618 v 0.0618 q -3.06074,0 -4.76115,-1.23667 -1.66949,-1.23666 -1.66949,-4.08098 v -26.27909 z"
         style="font-style:normal;font-variant:normal;font-weight:normal;font-stretch:normal;font-size:medium;line-height:125%;font-family:Basic;-inkscape-font-specification:Basic;letter-spacing:0px;word-spacing:0px;fill:#4d4d4d;fill-opacity:1;stroke:none;stroke-width:1px;stroke-linecap:butt;stroke-linejoin:miter;stroke-opacity:1"
         id="path9854"
         inkscape:connector-curvature="0" />
      <path
         d="m 374.15049,116.08826 -2.44241,-2.50424 v -3.49357 h 5.68865 l 2.65883,2.41149 0.89658,-0.1855 q 0.21641,-0.1855 0.98933,-0.64925 0.80383,-0.46374 1.94774,-0.92749 1.17483,-0.46375 2.65883,-0.80383 1.48399,-0.371 3.12257,-0.371 2.59699,0 4.60657,0.77291 2.04049,0.77292 3.43174,2.22599 1.39124,1.42217 2.10233,3.43174 0.71108,2.00958 0.71108,4.51382 v 21.51794 h -6.64707 v -20.86869 q 0,-3.3699 -1.42216,-4.94665 -1.39124,-1.60766 -4.45199,-1.60766 -1.51491,0 -2.8134,0.27825 -1.2985,0.24733 -2.28783,0.58741 -1.14391,0.371 -2.13324,0.86567 v 25.69167 h -6.61615 z"
         style="font-style:normal;font-variant:normal;font-weight:normal;font-stretch:normal;font-size:medium;line-height:125%;font-family:Basic;-inkscape-font-specification:Basic;letter-spacing:0px;word-spacing:0px;fill:#4d4d4d;fill-opacity:1;stroke:none;stroke-width:1px;stroke-linecap:butt;stroke-linejoin:miter;stroke-opacity:1"
         id="path9856"
         inkscape:connector-curvature="0" />
      <path
         d="m 408.25146,140.51236 q 0.0618,-0.71109 0.21642,-1.60767 0.15458,-0.74199 0.40191,-1.76224 0.27825,-1.05116 0.80384,-2.25691 1.66949,0.5565 3.40082,0.98933 1.48399,0.371 3.24624,0.68016 1.76224,0.30917 3.3699,0.30917 2.44241,0 4.08099,-0.371 1.6695,-0.371 2.65883,-1.08208 1.02024,-0.742 1.45308,-1.82408 0.43283,-1.11299 0.43283,-2.56607 0,-1.63858 -0.46375,-2.78249 -0.43283,-1.14392 -1.36033,-1.97866 -0.89658,-0.83475 -2.31874,-1.42217 -1.42216,-0.58741 -3.36991,-1.14391 -3.40082,-0.9275 -5.75048,-2.00958 -2.34966,-1.11299 -3.83366,-2.53516 -1.45307,-1.42216 -2.10232,-3.21532 -0.64925,-1.82408 -0.64925,-4.14282 0,-3.33899 1.02025,-5.71957 1.05116,-2.38057 2.93707,-3.89548 1.91683,-1.51492 4.60657,-2.225997 2.72066,-0.711081 6.05965,-0.711081 2.56607,0 4.4829,0.401916 1.94774,0.401912 3.27716,0.865662 1.54583,0.5565 2.68974,1.26758 -0.0928,0.71108 -0.371,1.54583 -0.24733,0.71108 -0.68016,1.66949 -0.43284,0.95842 -1.20575,2.07141 -0.9275,-0.61833 -2.16416,-1.11299 -1.08208,-0.43283 -2.62791,-0.77292 -1.51491,-0.37099 -3.52449,-0.37099 -2.19508,0 -3.70999,0.34008 -1.48399,0.34008 -2.44241,1.08208 -0.95841,0.71108 -1.39124,1.82408 -0.40192,1.08208 -0.40192,2.59699 0,1.70041 0.43283,2.84432 0.43284,1.113 1.39125,1.91683 0.95841,0.77291 2.47333,1.36033 1.54582,0.58741 3.70998,1.20574 3.24624,0.89659 5.53407,1.91683 2.28783,1.02025 3.70999,2.38058 1.45308,1.36033 2.10233,3.24624 0.68016,1.85499 0.68016,4.4829 0,3.24624 -0.83475,5.65773 -0.83474,2.38058 -2.65882,3.98824 -1.82408,1.60766 -4.69932,2.38058 -2.87524,0.80383 -6.92531,0.80383 -2.4115,0 -4.54474,-0.371 -2.13324,-0.34008 -3.70999,-0.77291 -1.88591,-0.52559 -3.43174,-1.17483 z"
         style="font-style:normal;font-variant:normal;font-weight:normal;font-stretch:normal;font-size:medium;line-height:125%;font-family:Basic;-inkscape-font-specification:Basic;letter-spacing:0px;word-spacing:0px;fill:#4d4d4d;fill-opacity:1;stroke:none;stroke-width:1px;stroke-linecap:butt;stroke-linejoin:miter;stroke-opacity:1"
         id="path9858"
         inkscape:connector-curvature="0" />
      <path
         d="m 443.9601,115.2226 h -4.05007 q -0.0309,-0.34008 -0.0618,-0.742 -0.0309,-0.34008 -0.0618,-0.80383 0,-0.46375 0,-1.02025 0,-0.55649 0.0309,-1.02024 0.0309,-0.49467 0.0928,-1.20575 h 4.05007 v -4.91573 l 3.5554,-4.01916 h 2.75158 v 8.93489 h 8.74939 q 0.0618,0.30917 0.0927,0.742 0.0618,0.43283 0.0618,0.83475 0,0.71108 -0.15458,1.29849 -0.12367,0.58742 -0.27825,1.02025 -0.1855,0.49466 -0.43283,0.89658 h -8.03831 v 17.93161 q 0,2.25691 0.742,3.27716 0.77291,1.02024 2.44241,1.02024 0.71108,0 1.48399,-0.15458 0.80383,-0.1855 1.51491,-0.43283 0.80383,-0.27825 1.63858,-0.61833 0.61833,0.80383 0.95842,1.57674 0.37099,0.77292 0.52558,1.39125 0.1855,0.71108 0.21641,1.32941 -0.86566,0.58742 -1.94774,1.05117 -0.95841,0.40191 -2.28783,0.71108 -1.32941,0.34008 -3.06074,0.34008 -2.41149,0 -4.05007,-0.61833 -1.60766,-0.58742 -2.62791,-1.76225 -0.98933,-1.20574 -1.42216,-2.96799 -0.43283,-1.79316 -0.43283,-4.1119 V 115.2226 Z"
         style="font-style:normal;font-variant:normal;font-weight:normal;font-stretch:normal;font-size:medium;line-height:125%;font-family:Basic;-inkscape-font-specification:Basic;letter-spacing:0px;word-spacing:0px;fill:#4d4d4d;fill-opacity:1;stroke:none;stroke-width:1px;stroke-linecap:butt;stroke-linejoin:miter;stroke-opacity:1"
         id="path9860"
         inkscape:connector-curvature="0" />
      <path
         d="m 469.4972,110.09045 3.1844,3.33899 q 0.34008,-0.77292 0.86567,-1.45308 0.55649,-0.71108 1.26758,-1.23666 0.74199,-0.52558 1.63857,-0.83475 0.9275,-0.30917 2.00958,-0.30917 0.89658,0 1.73133,0.15459 0.83475,0.12366 1.82408,0.46375 0.0309,0.0618 0.0618,0.49466 0.0618,0.43283 0.0618,1.08208 0,0.49467 -0.0618,1.17483 -0.0618,0.64925 -0.21642,1.36033 -0.12366,0.68016 -0.40191,1.36033 -0.24733,0.68016 -0.64925,1.17483 l -0.58741,0.15458 q -0.61834,-0.30916 -1.39125,-0.52558 -0.742,-0.21642 -1.54583,-0.21642 -1.23666,0 -2.07141,0.1855 -0.83475,0.15459 -1.36033,0.34009 -0.61833,0.21641 -0.98933,0.49466 v 24.73326 h -6.61614 v -25.93901 l -2.44241,-2.50424 v -3.49357 h 5.68865 z"
         style="font-style:normal;font-variant:normal;font-weight:normal;font-stretch:normal;font-size:medium;line-height:125%;font-family:Basic;-inkscape-font-specification:Basic;letter-spacing:0px;word-spacing:0px;fill:#4d4d4d;fill-opacity:1;stroke:none;stroke-width:1px;stroke-linecap:butt;stroke-linejoin:miter;stroke-opacity:1"
         id="path9862"
         inkscape:connector-curvature="0" />
      <path
         d="m 485.48107,126.53807 q 0,-4.45199 1.08208,-7.66731 1.08208,-3.21533 3.02982,-5.28674 1.94775,-2.07141 4.63749,-3.02982 2.72066,-0.98933 5.9669,-0.98933 2.99891,0 5.34857,1.02024 2.38057,0.98933 4.01915,2.81341 1.63858,1.82408 2.50424,4.35924 0.86567,2.53516 0.86567,5.5959 0,1.05116 -0.0928,1.94774 -0.0927,0.89658 -0.21642,1.54583 -0.12367,0.77292 -0.27825,1.39125 l -20.28127,-0.0928 q 0.0309,2.75157 0.58742,4.57565 0.55649,1.79316 1.63857,2.84432 1.113,1.05117 2.78249,1.484 1.6695,0.40191 3.95733,0.40191 1.94774,0 3.49357,-0.24733 1.54583,-0.24733 2.62791,-0.58741 1.23666,-0.371 2.22599,-0.86567 0.46375,1.08208 0.71108,2.00958 0.27825,0.9275 0.40192,1.60766 0.12366,0.80383 0.1855,1.42216 -1.02025,0.52559 -2.47333,0.9275 -1.23666,0.34008 -3.02982,0.61833 -1.79316,0.30917 -4.14282,0.30917 -3.70999,0 -6.61615,-0.83475 -2.87524,-0.83475 -4.88482,-2.72066 -1.97866,-1.91682 -3.02982,-4.97756 -1.02025,-3.09166 -1.02025,-7.57456 z m 20.83777,-2.90616 v -1.05117 q 0,-1.94774 -0.49467,-3.43174 -0.46374,-1.51491 -1.29849,-2.53515 -0.83475,-1.02025 -1.97866,-1.54583 -1.14392,-0.52558 -2.47333,-0.52558 -1.94774,0 -3.43174,0.52558 -1.48399,0.49466 -2.50424,1.60766 -0.98933,1.08208 -1.48399,2.81341 -0.49467,1.73132 -0.49467,4.14282 z"
         style="font-style:normal;font-variant:normal;font-weight:normal;font-stretch:normal;font-size:medium;line-height:125%;font-family:Basic;-inkscape-font-specification:Basic;letter-spacing:0px;word-spacing:0px;fill:#4d4d4d;fill-opacity:1;stroke:none;stroke-width:1px;stroke-linecap:butt;stroke-linejoin:miter;stroke-opacity:1"
         id="path9864"
         inkscape:connector-curvature="0" />
      <path
         d="m 517.75796,126.53807 q 0,-4.45199 1.08208,-7.66731 1.08208,-3.21533 3.02982,-5.28674 1.94774,-2.07141 4.63749,-3.02982 2.72065,-0.98933 5.96689,-0.98933 2.99891,0 5.34857,1.02024 2.38058,0.98933 4.01916,2.81341 1.63857,1.82408 2.50424,4.35924 0.86566,2.53516 0.86566,5.5959 0,1.05116 -0.0928,1.94774 -0.0927,0.89658 -0.21641,1.54583 -0.12367,0.77292 -0.27825,1.39125 l -20.28127,-0.0928 q 0.0309,2.75157 0.58741,4.57565 0.5565,1.79316 1.63858,2.84432 1.113,1.05117 2.78249,1.484 1.6695,0.40191 3.95732,0.40191 1.94775,0 3.49357,-0.24733 1.54583,-0.24733 2.62791,-0.58741 1.23667,-0.371 2.226,-0.86567 0.46374,1.08208 0.71108,2.00958 0.27825,0.9275 0.40191,1.60766 0.12367,0.80383 0.1855,1.42216 -1.02024,0.52559 -2.47332,0.9275 -1.23667,0.34008 -3.02983,0.61833 -1.79316,0.30917 -4.14282,0.30917 -3.70999,0 -6.61614,-0.83475 -2.87525,-0.83475 -4.88482,-2.72066 -1.97866,-1.91682 -3.02983,-4.97756 -1.02024,-3.09166 -1.02024,-7.57456 z m 20.83777,-2.90616 v -1.05117 q 0,-1.94774 -0.49467,-3.43174 -0.46375,-1.51491 -1.2985,-2.53515 -0.83474,-1.02025 -1.97866,-1.54583 -1.14391,-0.52558 -2.47332,-0.52558 -1.94775,0 -3.43174,0.52558 -1.484,0.49466 -2.50424,1.60766 -0.98933,1.08208 -1.484,2.81341 -0.49466,1.73132 -0.49466,4.14282 z"
         style="font-style:normal;font-variant:normal;font-weight:normal;font-stretch:normal;font-size:medium;line-height:125%;font-family:Basic;-inkscape-font-specification:Basic;letter-spacing:0px;word-spacing:0px;fill:#4d4d4d;fill-opacity:1;stroke:none;stroke-width:1px;stroke-linecap:butt;stroke-linejoin:miter;stroke-opacity:1"
         id="path9866"
         inkscape:connector-curvature="0" />
      <path
         d="m 553.28111,115.2226 h -4.05007 q -0.0309,-0.34008 -0.0618,-0.742 -0.0309,-0.34008 -0.0618,-0.80383 0,-0.46375 0,-1.02025 0,-0.55649 0.0309,-1.02024 0.0309,-0.49467 0.0928,-1.20575 h 4.05007 v -4.91573 l 3.55541,-4.01916 h 2.75157 v 8.93489 h 8.74939 q 0.0618,0.30917 0.0928,0.742 0.0618,0.43283 0.0618,0.83475 0,0.71108 -0.15459,1.29849 -0.12366,0.58742 -0.27825,1.02025 -0.1855,0.49466 -0.43283,0.89658 h -8.03831 v 17.93161 q 0,2.25691 0.742,3.27716 0.77292,1.02024 2.44241,1.02024 0.71108,0 1.484,-0.15458 0.80383,-0.1855 1.51491,-0.43283 0.80383,-0.27825 1.63858,-0.61833 0.61833,0.80383 0.95841,1.57674 0.371,0.77292 0.52558,1.39125 0.1855,0.71108 0.21642,1.32941 -0.86567,0.58742 -1.94775,1.05117 -0.95841,0.40191 -2.28782,0.71108 -1.32942,0.34008 -3.06074,0.34008 -2.4115,0 -4.05007,-0.61833 -1.60767,-0.58742 -2.62791,-1.76225 -0.98933,-1.20574 -1.42217,-2.96799 -0.43283,-1.79316 -0.43283,-4.1119 V 115.2226 Z"
         style="font-style:normal;font-variant:normal;font-weight:normal;font-stretch:normal;font-size:medium;line-height:125%;font-family:Basic;-inkscape-font-specification:Basic;letter-spacing:0px;word-spacing:0px;fill:#4d4d4d;fill-opacity:1;stroke:none;stroke-width:1px;stroke-linecap:butt;stroke-linejoin:miter;stroke-opacity:1"
         id="path9868"
         inkscape:connector-curvature="0" />
    </g>
  </g>
</svg>
