<svg xmlns="http://www.w3.org/2000/svg" xmlns:xlink="http://www.w3.org/1999/xlink">
  <defs>
    <symbol id="baggage" viewBox="0 0 24 24">
    <title>baggage</title>
    <path d="M5.5 6c-1.376 0-2.5 1.124-2.5 2.5v9c0 1.376 1.124 2.5 2.5 2.5h1.5v-14zM8 6v14h8v-14zM17 6v14h1.5c1.376 0 2.5-1.124 2.5-2.5v-9c0-1.376-1.124-2.5-2.5-2.5z"></path>
    <path fill="none" opacity="0.93" stroke="#000" style="stroke: var(--color1, #000)" stroke-linejoin="miter" stroke-linecap="square" stroke-miterlimit="4" stroke-width="1" d="M9.5 6.5v-1c0-1.108 0.892-2 2-2h1c1.108 0 2 0.892 2 2v1"></path>
    </symbol>
    <symbol id="barcode" viewBox="0 0 24 24">
    <title>barcode</title>
    <path d="M4 6h1v12h-1v-12z"></path>
    <path d="M6 6h1v10h-1v-10z"></path>
    <path d="M8 6h2v10h-2v-10z"></path>
    <path d="M11 6h1v10h-1v-10z"></path>
    <path d="M13 6h2v10h-2v-10z"></path>
    <path d="M16 6h1v10h-1v-10z"></path>
    <path d="M18 6h1v10h-1v-10z"></path>
    <path d="M20 6h1v12h-1v-12z"></path>
    <path d="M6 17h1v1h-1v-1z"></path>
    <path d="M8 17h1v1h-1v-1z"></path>
    <path d="M10 17h1v1h-1v-1z"></path>
    <path d="M12 17h1v1h-1v-1z"></path>
    <path d="M14 17h1v1h-1v-1z"></path>
    <path d="M16 17h1v1h-1v-1z"></path>
    <path d="M18 17h1v1h-1v-1z"></path>
    </symbol>
    <symbol id="book" viewBox="0 0 24 24">
    <title>book</title>
    <path d="M5.5 3c-1.376 0-2.5 1.124-2.5 2.5v13.004l-0.002 0.1 0.041 0.098 0.961-0.197c0.008-0.56 0.18-0.903 0.43-1.133 0.251-0.232 0.615-0.363 1.070-0.363h0.5v-14.008zM7 3v14.008h11.5c1.376 0 2.5-1.124 2.5-2.5v-9c-0-1.376-1.124-2.5-2.5-2.5z"></path>
    <path fill="none" stroke="#000" style="stroke: var(--color1, #000)" stroke-linejoin="round" stroke-linecap="butt" stroke-miterlimit="4" stroke-width="0.9997" d="M7.433 20.5h-1.933c-1.108 0-2-0.892-2-2v-0M20.5 14.5c0 1.332 0 2.667 0 4v0c0 1.108-0.892 2-2 2h-7.037"></path>
    <path fill="none" stroke="#000" style="stroke: var(--color1, #000)" stroke-linejoin="round" stroke-linecap="butt" stroke-miterlimit="4" stroke-width="0.9997" d="M20.5 16.5v0c0 1.108-0.892 2-2 2h-13"></path>
    <path d="M7 18.499v4c0 0.371 0.39 0.612 0.723 0.447l1.777-0.887 1.777 0.887c0.332 0.165 0.722-0.076 0.723-0.447v-4c0 0-1.119 0-5 0z"></path>
    </symbol>
    <symbol id="briefcase" viewBox="0 0 24 24">
    <title>briefcase</title>
    <path d="M4.5 6c-0.822 0-1.5 0.678-1.5 1.5v0.846l7.861 2.723c0.123-0.041 0.253-0.068 0.389-0.068h1.5c0.135 0 0.264 0.027 0.387 0.068l7.863-2.723v-0.846c0-0.822-0.678-1.5-1.5-1.5zM21 9.402l-7.074 2.445c0.044 0.127 0.074 0.261 0.074 0.402v0.5c0 0.684-0.566 1.25-1.25 1.25h-1.5c-0.684 0-1.25-0.566-1.25-1.25v-0.5c0-0.14 0.030-0.274 0.074-0.4l-7.074-2.445v9.096c0 0.822 0.678 1.5 1.5 1.5h15c0.822 0 1.5-0.678 1.5-1.5zM11.25 12c-0.147 0-0.25 0.103-0.25 0.25v0.5c0 0.147 0.103 0.252 0.25 0.252h1.5c0.147 0 0.25-0.105 0.25-0.252v-0.5c0-0.147-0.103-0.25-0.25-0.25z"></path>
    <path fill="none" stroke="#000" style="stroke: var(--color1, #000)" stroke-linejoin="round" stroke-linecap="butt" stroke-miterlimit="4" stroke-width="1" d="M9.5 6.5v-2c0-0.554 0.446-1 1-1h3c0.554 0 1 0.446 1 1v2"></path>
    </symbol>
    <symbol id="camcorder" viewBox="0 0 24 24">
    <title>camcorder</title>
    <path d="M3.5 6c-0.822 0-1.5 0.678-1.5 1.5v9c0 0.822 0.678 1.5 1.5 1.5h12c0.822 0 1.5-0.678 1.5-1.5v-2.941l3.168 2.816c0.323 0.287 0.833 0.057 0.832-0.375v-8c-0.001-0.282-0.234-0.507-0.516-0.498-0.117 0.003-0.229 0.048-0.316 0.125l-3.168 2.816v-2.943c0-0.822-0.678-1.5-1.5-1.5z"></path>
    </symbol>
    <symbol id="camera" viewBox="0 0 24 24">
    <title>camera</title>
    <path d="M9.5 5.002c-0.157-0-0.306 0.073-0.4 0.199l-1.35 1.799h-3.25c-0.821 0-1.5 0.679-1.5 1.5v10c0 0.821 0.679 1.5 1.5 1.5h15c0.821 0 1.5-0.679 1.5-1.5v-10c0-0.821-0.679-1.5-1.5-1.5h-3.25l-1.35-1.799c-0.095-0.126-0.243-0.2-0.4-0.199zM12 9c2.203 0 4 1.797 4 4s-1.797 4-4 4c-2.203 0-4-1.797-4-4s1.797-4 4-4zM12 10.002c-1.663 0-3 1.335-3 2.998s1.337 3 3 3 3-1.337 3-3c0-1.663-1.337-2.998-3-2.998z"></path>
    </symbol>
    <symbol id="cloud-disconnected" viewBox="0 0 24 24">
    <title>cloud-disconnected</title>
    <path d="M12 4.002c-2.193 0-4.134 1.184-5.18 2.971l-0.221 0.375 13.58 10.793 0.314-0.281c0.923-0.823 1.506-2.025 1.506-3.357 0-2.302-1.767-4.137-4.002-4.396 0.001-0.033 0.006-0.068 0.006-0.102 0-3.309-2.694-6.002-6.004-6.002zM3.814 6.113l-0.629 0.775 2.771 2.252c-2.274 0.488-3.954 2.49-3.957 4.861 0 2.755 2.245 4.998 5 4.998h11.092l1.094 0.889 0.629-0.775z"></path>
    </symbol>
    <symbol id="cloud" viewBox="0 0 24 24">
    <title>cloud</title>
    <path d="M12 4.001c-2.987 0-5.449 2.223-5.881 5.141-2.349 0.43-4.116 2.437-4.119 4.859 0 2.755 2.245 4.998 5 4.998h10.5c2.479 0 4.5-2.019 4.5-4.498 0-2.302-1.767-4.137-4.002-4.396 0.001-0.033 0.006-0.066 0.006-0.1v0c0-3.309-2.694-6.002-6.004-6.002z"></path>
    </symbol>
    <symbol id="eye-cross" viewBox="0 0 24 24">
    <title>eye-cross</title>
    <path d="M12 8c-3.234 0-6.269 1.571-8.143 4.207-0.124 0.174-0.124 0.406 0 0.58 1.098 1.548 2.604 2.716 4.309 3.428l2.232-1.814c-0.544-0.46-0.898-1.137-0.898-1.9 0-1.375 1.125-2.5 2.5-2.5 0.946 0 1.765 0.539 2.189 1.32l2.576-2.092c-1.444-0.787-3.075-1.226-4.766-1.229zM17.67 9.779l-3.184 2.588c0.002 0.045 0.014 0.087 0.014 0.133 0 1.375-1.125 2.5-2.5 2.5-0.222 0-0.433-0.039-0.639-0.094l-2.088 1.695c0.879 0.251 1.791 0.397 2.727 0.398 3.234 0 6.269-1.57 8.143-4.207 0.124-0.174 0.124-0.406 0-0.58-0.684-0.963-1.526-1.779-2.473-2.434z"></path>
    <path fill="none" stroke="#000" style="stroke: var(--color1, #000)" stroke-linejoin="miter" stroke-linecap="butt" stroke-miterlimit="4" stroke-width="1" d="M4.015 19.012l16-13"></path>
    </symbol>
    <symbol id="eye" viewBox="0 0 24 24">
    <title>eye</title>
    <path d="M12 8c-3.234 0-6.269 1.571-8.143 4.207-0.124 0.174-0.124 0.406 0 0.58 1.872 2.639 4.907 4.208 8.143 4.213 3.234 0 6.269-1.57 8.143-4.207 0.124-0.174 0.124-0.406 0-0.58-1.872-2.638-4.908-4.208-8.143-4.213zM12 10c1.375 0 2.5 1.125 2.5 2.5s-1.125 2.5-2.5 2.5c-1.375 0-2.5-1.125-2.5-2.5s1.125-2.5 2.5-2.5z"></path>
    </symbol>
    <symbol id="gear" viewBox="0 0 24 24">
    <title>gear</title>
    <path d="M10.5 2.5l-0.234 2.213c-0.83 0.203-1.56 0.517-2.221 0.93l0.031-0.018-1.732-1.402-2.121 2.121 1.402 1.732c-0.396 0.63-0.711 1.361-0.903 2.14l-0.011 0.052-2.211 0.232v3l2.213 0.232c0.2 0.833 0.512 1.567 0.925 2.231l-0.018-0.032-1.396 1.725 2.121 2.121 1.729-1.398c0.631 0.395 1.364 0.707 2.144 0.898l0.051 0.011 0.232 2.213h3l0.234-2.213c0.83-0.203 1.56-0.517 2.221-0.93l-0.031 0.018 1.732 1.402 2.121-2.121-1.402-1.732c0.396-0.63 0.711-1.361 0.903-2.14l0.011-0.052 2.211-0.232v-3l-2.213-0.232c-0.2-0.833-0.512-1.567-0.925-2.231l0.018 0.032 1.396-1.725-2.121-2.121-1.729 1.398c-0.631-0.395-1.364-0.707-2.144-0.898l-0.051-0.011-0.232-2.213zM12 9.5c1.381 0 2.5 1.119 2.5 2.5v0c0 1.381-1.119 2.5-2.5 2.5v0c-1.381 0-2.5-1.119-2.5-2.5v0c0-1.381 1.119-2.5 2.5-2.5v0z"></path>
    </symbol>
    <symbol id="gift" viewBox="0 0 24 24">
    <title>gift</title>
    <path d="M5.5 6c-0.822 0-1.5 0.678-1.5 1.5v2c0 0.647 0.421 1.292 1 1.5 2 0 4.738 0 7 0v-5zM13 6v5c2 0 5 0 7 0 0.579-0.208 1-0.853 1-1.5v-2c0-0.822-0.678-1.5-1.5-1.5zM5 12v7.5c0 0.822 0.678 1.5 1.5 1.5h5.5v-9zM13 12v9h5.5c0.822 0 1.5-0.678 1.5-1.5v-7.5z"></path>
    <path fill="none" stroke="#000" style="stroke: var(--color1, #000)" stroke-linejoin="round" stroke-linecap="butt" stroke-miterlimit="4" stroke-width="1" d="M12.5 6c0-0.828 0.895-2.5 2-2.5s2 0.672 2 1.5c0 0.828-0.895 1.5-2 1.5"></path>
    <path fill="none" stroke="#000" style="stroke: var(--color1, #000)" stroke-linejoin="round" stroke-linecap="butt" stroke-miterlimit="4" stroke-width="1" d="M12.5 6c0-0.828-0.895-2.5-2-2.5s-2 0.672-2 1.5c0 0.828 0.895 1.5 2 1.5"></path>
    </symbol>
    <symbol id="headphones" viewBox="0 0 24 24">
    <title>headphones</title>
    <path d="M12 2.999c-4.965 0-9 4.035-9 9v6.5c0 1.375 1.125 2.5 2.5 2.5h0.5c0.551 0 1.008-0.112 1.354-0.377s0.529-0.656 0.611-1.045c0.164-0.778 0.035-1.649 0.035-2.578s0.129-1.798-0.035-2.576c-0.082-0.389-0.265-0.78-0.611-1.045s-0.803-0.379-1.354-0.379h-2v-1c0-4.424 3.576-8 8-8s8 3.576 8 8v1h-2c-0.551 0-1.008 0.114-1.354 0.379s-0.529 0.656-0.611 1.045c-0.164 0.778-0.035 1.647-0.035 2.576s-0.129 1.8 0.035 2.578c0.082 0.389 0.265 0.78 0.611 1.045s0.803 0.377 1.354 0.377h0.5c1.375 0 2.5-1.125 2.5-2.5v-6.5c0-4.965-4.035-9-9-9z"></path>
    </symbol>
    <symbol id="lock-locked" viewBox="0 0 24 24">
    <title>lock-locked</title>
    <path d="M7.852 11c-1.017 0-1.852 0.836-1.852 1.854v6.295c0 1.017 0.834 1.852 1.852 1.852h8.297c0.875 0 1.51-0.666 1.699-1.486 0.099-0.096 0.154-0.228 0.152-0.365v-6.295c0-1.017-0.834-1.854-1.852-1.854zM12 14c1.105 0 2 0.895 2 2s-0.895 2-2 2c-1.105 0-2-0.895-2-2s0.895-2 2-2z"></path>
    <path fill="none" stroke="#000" style="stroke: var(--color1, #000)" stroke-linejoin="round" stroke-linecap="butt" stroke-miterlimit="4" stroke-width="0.9998" d="M15.5 11v-3c0-1.933-1.567-3.5-3.5-3.5s-3.5 1.567-3.5 3.5v3"></path>
    </symbol>
    <symbol id="lock-unlocked" viewBox="0 0 24 24">
    <title>lock-unlocked</title>
    <path d="M7.852 11c-1.017 0-1.852 0.836-1.852 1.854v6.295c0 1.017 0.834 1.852 1.852 1.852h8.297c0.875 0 1.51-0.666 1.699-1.486 0.099-0.096 0.154-0.228 0.152-0.365v-6.295c0-1.017-0.834-1.854-1.852-1.854zM12 14c1.105 0 2 0.895 2 2s-0.895 2-2 2c-1.105 0-2-0.895-2-2s0.895-2 2-2z"></path>
    <path fill="none" stroke="#000" style="stroke: var(--color1, #000)" stroke-linejoin="round" stroke-linecap="butt" stroke-miterlimit="4" stroke-width="0.9998" d="M15.5 9v-1c0-1.933-1.567-3.5-3.5-3.5s-3.5 1.567-3.5 3.5v3"></path>
    </symbol>
    <symbol id="male" viewBox="0 0 24 24">
    <title>male</title>
    <path d="M12.005 7.042c-1.483 0.046-2.61 0.172-3.344 0.957-0.769 0.823-1.091 2.397-1.209 3.378-0.235 1.962 0.319 3.819 0.319 3.819 0.278 1.009 1.791 0.573 1.49-0.429 0 0-0.413-2.004-0.27-3.205 0.072-0.602 0.234-1.091 0.425-1.501 0 0 0.132-0.253 0.372-0.176s0.221 0.291 0.221 0.291c-0.016 3.803-0.018 7.896-0.018 11.765-0.020 1.467 2.039 1.467 2.019 0v-6.946h1.037v6.946c-0.020 1.468 2.003 1.468 1.983 0 0.023-3.675-0.017-8.101-0.023-11.754 0 0-0.018-0.232 0.247-0.302s0.374 0.185 0.374 0.185c0.182 0.428 0.313 0.92 0.401 1.492 0.168 1.094-0.27 3.205-0.27 3.205-0.301 1.002 1.213 1.437 1.49 0.429 0 0 0.555-1.857 0.319-3.819-0.118-0.981-0.439-2.593-1.209-3.416-0.735-0.786-1.866-0.876-3.352-0.92-0.103 0-0.906-0-1.007-0z"></path>
    <path d="M14.993 3.511c0-1.374-1.114-2.489-2.489-2.489s-2.489 1.114-2.489 2.489c0 1.374 1.114 2.489 2.489 2.489s2.489-1.114 2.489-2.489z"></path>
    </symbol>
    <symbol id="microphone-mute" viewBox="0 0 24 24">
    <title>microphone-mute</title>
    <path d="M12 3c-2.207 0-4 1.793-4 4v7c0 0.29 0.031 0.574 0.090 0.848l0.168 0.791 7.742-6.193v-2.445c0-2.207-1.793-4-4-4zM16 11.006l-7.010 5.697 0.475 0.389c0.688 0.564 1.572 0.908 2.535 0.908 2.207 0 4-1.793 4-4z"></path>
    <path fill="none" stroke="#000" style="stroke: var(--color1, #000)" stroke-linejoin="round" stroke-linecap="butt" stroke-miterlimit="4" stroke-width="1.0005" d="M17.5 14c0 3.047-2.453 5.5-5.5 5.5-1.738 0-3.282-0.798-4.289-2.049M6.932 16.147c-0.278-0.659-0.432-1.385-0.432-2.148"></path>
    <path fill="none" stroke="#000" style="stroke: var(--color1, #000)" stroke-linejoin="miter" stroke-linecap="butt" stroke-miterlimit="4" stroke-width="1" d="M12 22v-3"></path>
    <path fill="none" stroke="#000" style="stroke: var(--color1, #000)" stroke-linejoin="miter" stroke-linecap="butt" stroke-miterlimit="4" stroke-width="1" d="M4 18.5l16-13"></path>
    </symbol>
    <symbol id="microphone" viewBox="0 0 24 24">
    <title>microphone</title>
    <path d="M12 2.999c-2.207 0-4 1.793-4 4v7c0 2.207 1.793 4 4 4s4-1.793 4-4v-7c0-2.207-1.793-4-4-4z"></path>
    <path fill="none" stroke="#000" style="stroke: var(--color1, #000)" stroke-linejoin="round" stroke-linecap="butt" stroke-miterlimit="4" stroke-width="1.0005" d="M17.5 14c0 3.047-2.453 5.5-5.5 5.5s-5.5-2.453-5.5-5.5"></path>
    <path fill="none" stroke="#000" style="stroke: var(--color1, #000)" stroke-linejoin="miter" stroke-linecap="butt" stroke-miterlimit="4" stroke-width="1" d="M12 22v-3"></path>
    </symbol>
    <symbol id="music" viewBox="0 0 24 24">
    <title>music</title>
    <path d="M15.484 2.002c-0.055 0.001-0.109 0.011-0.16 0.029l-8 3c-0.195 0.073-0.324 0.26-0.324 0.469v8.883c-0.251-0.149-0.526-0.262-0.82-0.32-0.692-0.138-1.473-0.046-2.215 0.287s-1.321 0.851-1.658 1.459-0.426 1.336-0.115 1.971c0.31 0.634 0.937 1.022 1.629 1.16s1.473 0.046 2.215-0.287c0.742-0.333 1.321-0.851 1.658-1.459 0.205-0.369 0.301-0.783 0.289-1.193h0.018v-7.152l7-2.625v5.16c-0.251-0.149-0.526-0.262-0.82-0.32-0.692-0.138-1.473-0.046-2.215 0.287s-1.321 0.851-1.658 1.459-0.426 1.336-0.115 1.971c0.31 0.634 0.937 1.022 1.629 1.16s1.473 0.046 2.215-0.287c0.742-0.333 1.321-0.851 1.658-1.459 0.205-0.369 0.301-0.783 0.289-1.193h0.018v-10.5c-0.001-0.282-0.234-0.507-0.516-0.498zM18.49 7.002c-0.272 0.005-0.489 0.226-0.49 0.498v9.883c-0.251-0.149-0.526-0.262-0.82-0.32-0.692-0.138-1.473-0.046-2.215 0.287s-1.321 0.851-1.658 1.459-0.426 1.336-0.115 1.971c0.31 0.634 0.937 1.022 1.629 1.16s1.473 0.046 2.215-0.287c0.742-0.333 1.321-0.851 1.658-1.459 0.205-0.369 0.301-0.783 0.289-1.193h0.018v-9.629c0.322 0.494 0.602 0.991 1.164 1.5 1.238 1.12 0.846 3.533 0.846 3.533l0.98 0.193c0 0 0.639-2.844-1.154-4.467-1.409-1.275-1.857-2.773-1.857-2.773-0.065-0.214-0.264-0.36-0.488-0.355z"></path>
    </symbol>
    <symbol id="phone" viewBox="0 0 24 24">
    <title>phone</title>
    <path d="M6.9 3c-2.147 0-3.9 1.753-3.9 3.9 0 7.632 6.092 13.823 13.668 14.057l0.008 0.043h0.424c2.147 0 3.9-1.753 3.9-3.9 0-0.221-0.019-0.438-0.055-0.648-0.006-0.040-0.013-0.079-0.021-0.117-0.089-0.45-0.409-0.821-0.84-0.977h-0.002c-0.925-0.332-3.232-1.159-4.168-1.494-0.451-0.162-0.962 0.010-1.225 0.41l-1.080 1.641c-2.49-0.98-4.535-2.947-5.523-5.428-0.012-0.030-0.005-0.046 0.014-0.059v-0.002l1.645-1.119c0.391-0.267 0.554-0.769 0.396-1.213h-0.002l-1.494-4.174c-0.155-0.432-0.527-0.754-0.98-0.844v-0.002h-0.002c-0.036-0.007-0.076-0.013-0.119-0.020-0.21-0.036-0.425-0.055-0.643-0.055z"></path>
    </symbol>
    <symbol id="pin" viewBox="0 0 24 24">
    <title>pin</title>
    <path fill="none" stroke="#000" style="stroke: var(--color1, #000)" stroke-linejoin="miter" stroke-linecap="butt" stroke-miterlimit="4" stroke-width="1" d="M12 21v-5"></path>
    <path d="M10.5 2.999c-0.425 0-0.764 0.212-1.027 0.475s-0.473 0.6-0.473 1.025v5.846c-1.253 0.99-1.999 2.598-2 4.154v0c0.002 0.426 0.204 0.787 0.473 1.051s0.622 0.455 1.037 0.447h6.979c0.414 0.010 0.755-0.183 1.025-0.443s0.485-0.62 0.486-1.055v0c-0.001-1.555-0.752-3.163-2-4.154v-5.846c0-0.425-0.21-0.762-0.473-1.025s-0.602-0.475-1.027-0.475z"></path>
    </symbol>
    <symbol id="shield" viewBox="0 0 24 24">
    <title>shield</title>
    <path d="M12 2.85l-0.32 0.266c-2.836 2.364-7.234 2.889-7.234 2.889l-0.484 0.053 0.041 0.484c0.244 2.932-0.147 5.828 0.578 8.525s2.649 5.114 7.248 6.9l0.182 0.070 0.182-0.070c4.589-1.787 6.508-4.204 7.23-6.9s0.332-5.593 0.576-8.525l0.041-0.484-0.484-0.053c0 0-4.398-0.525-7.234-2.889z"></path>
    </symbol>
    <symbol id="shopping-cart" viewBox="0 0 24 24">
    <title>shopping-cart</title>
    <path d="M2 5v1h2.139l0.887 2.658 1.83 5.494c-0.503 0.243-0.855 0.756-0.855 1.348 0 0.822 0.678 1.5 1.5 1.5h10.5v-1h-10.5c-0.282 0-0.5-0.218-0.5-0.5s0.218-0.5 0.5-0.5h10.002c0.427 0 0.735-0.23 0.98-0.484s0.436-0.557 0.508-0.916l1-5c0.092-0.458-0.109-0.895-0.4-1.168s-0.675-0.432-1.090-0.432h-12.973l-0.666-2z"></path>
    <path d="M8.5 17.999c-0.823 0-1.5 0.678-1.5 1.5s0.678 1.5 1.5 1.5c0.822 0 1.5-0.678 1.5-1.5s-0.677-1.5-1.5-1.5z"></path>
    <path d="M16.5 17.999c-0.823 0-1.5 0.678-1.5 1.5s0.678 1.5 1.5 1.5c0.822 0 1.5-0.678 1.5-1.5s-0.677-1.5-1.5-1.5z"></path>
    </symbol>
    <symbol id="star" viewBox="0 0 24 24">
    <title>star</title>
    <path d="M11.954 1.999c-0.212 0-0.35 0.1-0.448 0.186s-0.168 0.176-0.239 0.278c-0.14 0.202-0.27 0.449-0.407 0.739-0.274 0.578-0.566 1.323-0.854 2.077s-0.572 1.519-0.811 2.108c-0.12 0.295-0.231 0.546-0.319 0.723s-0.211 0.291-0.106 0.21c0.106-0.082-0.035 0.010-0.223 0.043-0.187 0.036-0.451 0.070-0.757 0.102-0.61 0.064-1.392 0.119-2.168 0.182s-1.546 0.132-2.156 0.233c-0.305 0.050-0.569 0.106-0.796 0.186-0.113 0.040-0.218 0.086-0.324 0.157s-0.239 0.179-0.303 0.39c-0.064 0.211-0.016 0.379 0.031 0.502s0.109 0.222 0.18 0.322c0.141 0.202 0.324 0.407 0.545 0.633 0.442 0.45 1.032 0.97 1.63 1.49s1.207 1.037 1.669 1.457c0.231 0.21 0.426 0.397 0.559 0.539s0.2 0.299 0.158 0.169c-0.041-0.13-0.004 0.040-0.029 0.237s-0.075 0.467-0.141 0.78c-0.131 0.625-0.322 1.42-0.504 2.21s-0.357 1.575-0.454 2.212c-0.048 0.318-0.079 0.597-0.076 0.847 0.001 0.125 0.009 0.243 0.041 0.371s0.089 0.291 0.262 0.42c0.173 0.129 0.34 0.134 0.467 0.124s0.236-0.039 0.35-0.077c0.227-0.077 0.469-0.199 0.743-0.349 0.547-0.3 1.205-0.723 1.863-1.157s1.318-0.879 1.843-1.208c0.263-0.165 0.492-0.299 0.663-0.388s0.334-0.105 0.201-0.105c0.001 0 0.001 0 0.002 0-0.131 0.001 0.034 0.016 0.205 0.102s0.404 0.22 0.669 0.382c0.529 0.323 1.194 0.758 1.857 1.183s1.324 0.84 1.875 1.133c0.275 0.147 0.52 0.264 0.749 0.339 0.114 0.038 0.223 0.066 0.35 0.073 0.127 0.010 0.294 0.001 0.465-0.131s0.227-0.296 0.258-0.424 0.037-0.247 0.037-0.371c-0-0.25-0.034-0.529-0.086-0.847-0.104-0.636-0.287-1.418-0.479-2.206s-0.394-1.578-0.532-2.202c-0.069-0.312-0.12-0.583-0.149-0.78s0.006-0.365-0.033-0.235c-0.040 0.13 0.025-0.028 0.156-0.171s0.324-0.334 0.553-0.547c0.458-0.426 1.061-0.95 1.654-1.477s1.174-1.054 1.611-1.51c0.219-0.228 0.401-0.435 0.54-0.639 0.069-0.101 0.13-0.203 0.176-0.327s0.090-0.292 0.023-0.502c-0.067-0.21-0.199-0.315-0.307-0.386s-0.213-0.113-0.326-0.151c-0.228-0.076-0.492-0.129-0.798-0.175-0.612-0.093-1.381-0.155-2.158-0.208s-1.559-0.097-2.17-0.153c-0.305-0.028-0.569-0.059-0.757-0.092-0.186-0.032-0.324-0.117-0.223-0.041 0.106 0.079-0.019-0.033-0.109-0.208s-0.203-0.425-0.326-0.718c-0.246-0.586-0.537-1.345-0.835-2.096s-0.599-1.492-0.88-2.067c-0.14-0.288-0.272-0.532-0.414-0.733-0.071-0.1-0.144-0.191-0.242-0.276s-0.236-0.182-0.448-0.182c-0.001 0-0.001 0-0.002 0z"></path>
    </symbol>
    <symbol id="thunder" viewBox="0 0 24 24">
    <title>thunder</title>
    <path d="M9.5 2.999c-0.219 0-0.412 0.143-0.477 0.352l-2.801 9c-0.1 0.321 0.14 0.648 0.477 0.648h3.438l-2.117 7.363c-0.15 0.522 0.523 0.875 0.867 0.455l9-11c0.27-0.327 0.037-0.819-0.387-0.818h-4.127l1.605-5.355c0.097-0.321-0.143-0.645-0.479-0.645z"></path>
    </symbol>
    <symbol id="ticket-2" viewBox="0 0 24 24">
    <title>ticket-2</title>
    <path d="M2.101 14.621c-0.195 0.195-0.195 0.512 0 0.707l2.121 2.121c0.194 0.194 0.509 0.195 0.704 0 0.492-0.478 0.82-0.641 1.065-0.642 0.245 0 0.571 0.152 1.061 0.641 0.488 0.488 0.641 0.815 0.639 1.059s-0.162 0.575-0.644 1.063c-0.194 0.194-0.191 0.51 0.003 0.704l2.121 2.121c0.195 0.195 0.512 0.195 0.707 0l8.132-8.132-1.414-1.414 0.707-0.707 1.414 1.414 3.182-3.182c0.195-0.195 0.195-0.512 0-0.707l-2.121-2.121c-0.194-0.194-0.509-0.195-0.704 0-0.439 0.439-0.775 0.604-1.043 0.612-0.268 0.010-0.601-0.129-1.081-0.609s-0.617-0.811-0.609-1.079c0.008-0.268 0.176-0.603 0.612-1.045 0.194-0.194 0.191-0.51-0.003-0.704l-2.121-2.121c-0.195-0.195-0.512-0.195-0.707 0zM10.939 7.197l0.707-0.707 1.414 1.414-0.707 0.707zM13.768 10.025l0.707-0.707 1.414 1.414-0.707 0.707z"></path>
    </symbol>
    <symbol id="ticket" viewBox="0 0 24 24">
    <title>ticket</title>
    <path d="M3.5 7c-0.276 0-0.5 0.224-0.5 0.5v3c0 0.275 0.221 0.498 0.496 0.5 0.686 0.010 1.033 0.127 1.207 0.299s0.296 0.511 0.297 1.203c-0 0.69-0.123 1.029-0.297 1.201s-0.521 0.292-1.207 0.297c-0.275 0-0.496 0.225-0.496 0.5v3c0 0.276 0.224 0.5 0.5 0.5h11.5v-2h1v2h4.5c0.276 0 0.5-0.224 0.5-0.5v-3c-0-0.275-0.221-0.498-0.496-0.5-0.621 0-0.975-0.121-1.17-0.305s-0.334-0.516-0.334-1.195c-0-0.679 0.137-1.009 0.332-1.193s0.551-0.302 1.172-0.307c0.275 0 0.496-0.225 0.496-0.5v-3c-0-0.276-0.224-0.5-0.5-0.5zM15 8h1v2h-1zM15 12h1v2h-1z"></path>
    </symbol>
    <symbol id="videogame" viewBox="0 0 24 24">
    <title>videogame</title>
    <path d="M4.682 4.875c-0.588 0-1.141 0.102-1.613 0.334s-0.871 0.617-1.043 1.135c-0.649 1.946-0.533 5.67-0.016 8.256 0.255 1.275 0.619 2.63 1.15 3.682 0.266 0.526 0.573 0.979 0.971 1.307s0.927 0.512 1.467 0.404c0.766-0.153 1.339-0.621 1.793-1.158s0.816-1.154 1.211-1.729c0.79-1.148 1.596-2.095 3.42-2.105 1.822-0.011 2.612 0.931 3.393 2.084 0.39 0.577 0.749 1.199 1.199 1.74s1.022 1.013 1.789 1.166c0.54 0.108 1.069-0.075 1.467-0.402s0.705-0.781 0.971-1.307c0.532-1.051 0.896-2.407 1.15-3.682 0.517-2.584 0.64-6.292-0.016-8.258-0.172-0.517-0.571-0.903-1.045-1.135s-1.029-0.332-1.621-0.332c-1.12 0-2.372 0.391-3.445 1.125h-7.797c-1.042-0.734-2.275-1.125-3.385-1.125zM6 8h1v2h2v1h-2v2h-1v-2h-2v-1h2zM17.5 8c1.375 0 2.5 1.125 2.5 2.5s-1.125 2.5-2.5 2.5c-1.375 0-2.5-1.125-2.5-2.5s1.125-2.5 2.5-2.5zM17.5 9c-0.834 0-1.5 0.666-1.5 1.5s0.666 1.5 1.5 1.5 1.5-0.666 1.5-1.5c0-0.834-0.666-1.5-1.5-1.5z"></path>
    </symbol>
    <symbol id="angle-down" viewBox="0 0 24 24">
    <title>angle-down</title>
    <path stroke-linejoin="miter" stroke-linecap="butt" stroke-miterlimit="4" stroke-width="1" d="M4.5 8.5l7 7 7-7"></path>
    </symbol>
    <symbol id="angle-left" viewBox="0 0 24 24">
    <title>angle-left</title>
    <path stroke-linejoin="miter" stroke-linecap="butt" stroke-miterlimit="4" stroke-width="1" d="M15.5 5.5l-7 7 7 7"></path>
    </symbol>
    <symbol id="angle-right" viewBox="0 0 24 24">
    <title>angle-right</title>
    <path stroke-linejoin="miter" stroke-linecap="butt" stroke-miterlimit="4" stroke-width="1" d="M8.5 5.5l7 7-7 7"></path>
    </symbol>
    <symbol id="angle-up" viewBox="0 0 24 24">
    <title>angle-up</title>
    <path stroke-linejoin="miter" stroke-linecap="butt" stroke-miterlimit="4" stroke-width="1" d="M4.5 15.5l7-7 7 7"></path>
    </symbol>
    <symbol id="arrow-down" viewBox="0 0 24 24">
    <title>arrow-down</title>
    <path stroke-linejoin="miter" stroke-linecap="butt" stroke-miterlimit="4" stroke-width="1" d="M11.5 19.5v-15.5"></path>
    <path stroke-linejoin="miter" stroke-linecap="butt" stroke-miterlimit="4" stroke-width="1" d="M4.5 12.5l7 7 7-7"></path>
    </symbol>
    <symbol id="arrow-left" viewBox="0 0 24 24">
    <title>arrow-left</title>
    <path stroke-linejoin="miter" stroke-linecap="butt" stroke-miterlimit="4" stroke-width="1" d="M4.5 12.5h15.5"></path>
    <path stroke-linejoin="miter" stroke-linecap="butt" stroke-miterlimit="4" stroke-width="1" d="M11.5 5.5l-7 7 7 7"></path>
    </symbol>
    <symbol id="arrow-right" viewBox="0 0 24 24">
    <title>arrow-right</title>
    <path stroke-linejoin="miter" stroke-linecap="butt" stroke-miterlimit="4" stroke-width="1" d="M19.5 12.5h-15.5"></path>
    <path stroke-linejoin="miter" stroke-linecap="butt" stroke-miterlimit="4" stroke-width="1" d="M12.5 5.5l7 7-7 7"></path>
    </symbol>
    <symbol id="arrow-up" viewBox="0 0 24 24">
    <title>arrow-up</title>
    <path stroke-linejoin="miter" stroke-linecap="butt" stroke-miterlimit="4" stroke-width="1" d="M11.5 4.75v15.5"></path>
    <path stroke-linejoin="miter" stroke-linecap="butt" stroke-miterlimit="4" stroke-width="1" d="M4.5 11.5l7-7 7 7"></path>
    </symbol>
    <symbol id="directions" viewBox="0 0 24 24">
    <title>directions</title>
    <path d="M12 2c-0.629 0-1.257 0.239-1.734 0.717l-7.549 7.549c-0.955 0.955-0.955 2.514 0 3.469l7.549 7.549c0.955 0.955 2.514 0.955 3.469 0l7.549-7.549c0.955-0.955 0.955-2.514 0-3.469l-7.549-7.549c-0.477-0.477-1.106-0.717-1.734-0.717zM14 8.5l4 2-4 2v-1.5h-2.539c-0.805 0-1.461 0.683-1.461 1.5v2.5h-1v-2.5c0-1.354 1.095-2.5 2.461-2.5h2.539z"></path>
    </symbol>
    <symbol id="ellipsis-horizontal" viewBox="0 0 24 24">
    <title>ellipsis-horizontal</title>
    <path d="M12.003 9.997c-1.099 0-2 0.902-2 2.001s0.902 2.001 2 2.001c1.099 0 2.001-0.902 2-2.001s-0.902-2.001-2-2.001z"></path>
    <path d="M6.001 9.997c-1.099 0-2 0.902-2 2.001s0.902 2.001 2 2.001c1.099 0 2.001-0.902 2-2.001s-0.902-2.001-2-2.001z"></path>
    <path d="M17.997 9.997c-1.099 0-2 0.902-2 2.001s0.902 2.001 2 2.001c1.099 0 2.001-0.902 2-2.001s-0.902-2.001-2-2.001z"></path>
    </symbol>
    <symbol id="ellipsis-vertical" viewBox="0 0 24 24">
    <title>ellipsis-vertical</title>
    <path d="M12 10c-1.098 0-2 0.902-2 2s0.902 2 2 2c1.098 0 2-0.902 2-2s-0.902-2-2-2z"></path>
    <path d="M12 4c-1.098 0-2 0.902-2 2s0.902 2 2 2c1.098 0 2-0.902 2-2s-0.902-2-2-2z"></path>
    <path d="M12 16c-1.098 0-2 0.902-2 2s0.902 2 2 2 2-0.902 2-2c0-1.098-0.902-2-2-2z"></path>
    </symbol>
    <symbol id="history" viewBox="0 0 24 24">
    <title>history</title>
    <path stroke-linejoin="miter" stroke-linecap="butt" stroke-miterlimit="4" stroke-width="1" d="M11.5 7v5.5l3.5 3"></path>
    <path stroke-linejoin="miter" stroke-linecap="butt" stroke-miterlimit="4" stroke-width="1" d="M7.504 11.293l-3 3-3-3"></path>
    <path stroke-linejoin="round" stroke-linecap="butt" stroke-miterlimit="4" stroke-width="1" d="M6.697 17.303c1.357 1.357 3.232 2.197 5.303 2.197 4.142 0 7.5-3.358 7.5-7.5s-3.358-7.5-7.5-7.5c-4.142 0-7.5 3.358-7.5 7.5v2"></path>
    </symbol>
    <symbol id="maximize-2" viewBox="0 0 24 24">
    <title>maximize-2</title>
    <path stroke-linejoin="round" stroke-linecap="butt" stroke-miterlimit="4" stroke-width="1.0001" d="M10 20.5h-5.5c-0.571 0-1-0.429-1-1v-5.5"></path>
    <path stroke-linejoin="miter" stroke-linecap="butt" stroke-miterlimit="4" stroke-width="1" d="M10.981 13.019l-6.981 6.981"></path>
    <path stroke-linejoin="round" stroke-linecap="butt" stroke-miterlimit="4" stroke-width="1.0001" d="M14 3.5h5.5c0.571 0 1 0.429 1 1v5.646"></path>
    <path stroke-linejoin="miter" stroke-linecap="butt" stroke-miterlimit="4" stroke-width="1" d="M19.854 4.146l-6.832 6.832"></path>
    </symbol>
    <symbol id="maximize-3" viewBox="0 0 24 24">
    <title>maximize-3</title>
    <path stroke-linejoin="round" stroke-linecap="butt" stroke-miterlimit="4" stroke-width="1.0001" d="M10 20.5h-5.5c-0.571 0-1-0.429-1-1v-5.5"></path>
    <path stroke-linejoin="miter" stroke-linecap="butt" stroke-miterlimit="4" stroke-width="1" d="M10.981 13.019l-6.981 6.981"></path>
    <path stroke-linejoin="round" stroke-linecap="butt" stroke-miterlimit="4" stroke-width="1.0001" d="M14 3.5h5.5c0.571 0 1 0.429 1 1v5.646"></path>
    <path stroke-linejoin="miter" stroke-linecap="butt" stroke-miterlimit="4" stroke-width="1" d="M19.854 4.146l-6.832 6.832"></path>
    <path stroke-linejoin="round" stroke-linecap="butt" stroke-miterlimit="4" stroke-width="1.0001" d="M14 20.5h5.5c0.571 0 1-0.429 1-1v-5.5"></path>
    <path stroke-linejoin="miter" stroke-linecap="butt" stroke-miterlimit="4" stroke-width="1" d="M13.019 13.019l6.981 6.981"></path>
    <path stroke-linejoin="round" stroke-linecap="butt" stroke-miterlimit="4" stroke-width="1.0001" d="M10 3.5h-5.5c-0.571 0-1 0.429-1 1v5.646"></path>
    <path stroke-linejoin="miter" stroke-linecap="butt" stroke-miterlimit="4" stroke-width="1" d="M4.146 4.146l6.832 6.832"></path>
    </symbol>
    <symbol id="maximize" viewBox="0 0 24 24">
    <title>maximize</title>
    <path stroke-linejoin="round" stroke-linecap="butt" stroke-miterlimit="4" stroke-width="1.0001" d="M20.5 12v7.47c0 0.571-0.46 1.030-1.030 1.030h-14.939c-0.571 0-1.030-0.459-1.030-1.030v-14.939c0-0.571 0.46-1.030 1.030-1.030h7.47M14 3.5h5.47c0.571 0 1.030 0.459 1.030 1.030v5.47"></path>
    <path stroke-linejoin="miter" stroke-linecap="butt" stroke-miterlimit="4" stroke-width="1" d="M12 12l8-8"></path>
    </symbol>
    <symbol id="menu" viewBox="0 0 24 24">
    <title>menu</title>
    <path stroke-linejoin="miter" stroke-linecap="butt" stroke-miterlimit="4" stroke-width="1" d="M4 8.5h16"></path>
    <path stroke-linejoin="miter" stroke-linecap="butt" stroke-miterlimit="4" stroke-width="1" d="M4 12.5h16"></path>
    <path stroke-linejoin="miter" stroke-linecap="butt" stroke-miterlimit="4" stroke-width="1" d="M4 16.5h16"></path>
    </symbol>
    <symbol id="minimize" viewBox="0 0 24 24">
    <title>minimize</title>
    <path fill="none" stroke="#000" style="stroke: var(--color1, #000)" stroke-linejoin="round" stroke-linecap="butt" stroke-miterlimit="4" stroke-width="1.0001" d="M18 12.5h-5.47c-0.571 0-1.030-0.459-1.030-1.030v-5.47"></path>
    <path fill="none" stroke="#000" style="stroke: var(--color1, #000)" stroke-linejoin="miter" stroke-linecap="butt" stroke-miterlimit="4" stroke-width="1" d="M20 4l-8 8"></path>
    <path d="M3.924 12.999c-0.503 0-0.924 0.423-0.924 0.926v6.15c0 0.503 0.42 0.924 0.924 0.924h6.152c0.503 0 0.924-0.42 0.924-0.924v-6.15c0-0.503-0.42-0.926-0.924-0.926z"></path>
    </symbol>
    <symbol id="navigate" viewBox="0 0 24 24">
    <title>navigate</title>
    <path d="M12 2.653l-0.465 1.16-6.488 16.223 6.953-3.477 6.953 3.477z"></path>
    </symbol>
    <symbol id="playback-forward" viewBox="0 0 24 24">
    <title>playback-forward</title>
    <path d="M4.496 4.999c-0.275 0-0.496 0.225-0.496 0.5v14c-0.001 0.378 0.403 0.62 0.736 0.441l11.264-6.064v5.623c0 0.276 0.224 0.5 0.5 0.5h3c0.276 0 0.5-0.224 0.5-0.5v-14c-0-0.276-0.224-0.5-0.5-0.5h-3c-0.276 0-0.5 0.224-0.5 0.5v5.625l-11.264-6.064c-0.074-0.040-0.156-0.061-0.24-0.061z"></path>
    </symbol>
    <symbol id="playback-pause" viewBox="0 0 24 24">
    <title>playback-pause</title>
    <path d="M6.809 4.999c-0.439 0-0.809 0.37-0.809 0.809v13.385c0 0.439 0.37 0.807 0.809 0.807h3.383c0.439 0 0.809-0.368 0.809-0.807v-13.385c0-0.439-0.37-0.809-0.809-0.809z"></path>
    <path d="M13.809 4.999c-0.439 0-0.809 0.37-0.809 0.809v13.385c0 0.439 0.37 0.807 0.809 0.807h3.383c0.439 0 0.809-0.368 0.809-0.807v-13.385c0-0.439-0.37-0.809-0.809-0.809z"></path>
    </symbol>
    <symbol id="playback-play" viewBox="0 0 24 24">
    <title>playback-play</title>
    <path d="M6.496 4.999c-0.275 0-0.496 0.225-0.496 0.5v14c-0.001 0.378 0.403 0.62 0.736 0.441l13-7c0.351-0.189 0.351-0.692 0-0.881l-13-7c-0.074-0.040-0.156-0.061-0.24-0.061z"></path>
    </symbol>
    <symbol id="playback-rewind" viewBox="0 0 24 24">
    <title>playback-rewind</title>
    <path d="M4.5 4.999c-0.276 0-0.5 0.224-0.5 0.5v14c0 0.276 0.224 0.5 0.5 0.5h3c0.276 0 0.5-0.224 0.5-0.5v-5.623l11.264 6.064c0.333 0.179 0.737-0.063 0.736-0.441v-14c-0.001-0.377-0.404-0.618-0.736-0.439l-11.264 6.064v-5.625c-0-0.276-0.224-0.5-0.5-0.5z"></path>
    </symbol>
    <symbol id="playback-stop" viewBox="0 0 24 24">
    <title>playback-stop</title>
    <path d="M6.5 4.999c-0.822 0-1.5 0.678-1.5 1.5v12c0 0.822 0.678 1.5 1.5 1.5h11c0.822 0 1.5-0.678 1.5-1.5v-12c0-0.822-0.678-1.5-1.5-1.5z"></path>
    </symbol>
    <symbol id="redo" viewBox="0 0 24 24">
    <title>redo</title>
    <path stroke-linejoin="round" stroke-linecap="butt" stroke-miterlimit="4" stroke-width="1" d="M6.5 18c-0-4.144 3.359-7.503 7.503-7.502h3"></path>
    <path stroke-linejoin="miter" stroke-linecap="butt" stroke-miterlimit="4" stroke-width="1.0001" d="M14.296 7.647l3 3-3 3"></path>
    </symbol>
    <symbol id="refresh" viewBox="0 0 24 24">
    <title>refresh</title>
    <path stroke-linejoin="miter" stroke-linecap="butt" stroke-miterlimit="4" stroke-width="1" d="M7.504 11.293l-3 3-3-3"></path>
    <path stroke-linejoin="round" stroke-linecap="butt" stroke-miterlimit="4" stroke-width="1" d="M6.697 17.303c1.357 1.357 3.232 2.197 5.303 2.197 4.142 0 7.5-3.358 7.5-7.5s-3.358-7.5-7.5-7.5c-4.142 0-7.5 3.358-7.5 7.5v2"></path>
    </symbol>
    <symbol id="sync" viewBox="0 0 24 24">
    <title>sync</title>
    <path stroke-linejoin="round" stroke-linecap="butt" stroke-miterlimit="4" stroke-width="1" d="M12 19.503c-4.144 0-7.503-3.359-7.503-7.503 0-1.050 0.216-2.049 0.605-2.957M12 4.497c4.144 0 7.503 3.359 7.503 7.503 0 0.713-0.099 1.402-0.285 2.056"></path>
    <path stroke-linejoin="miter" stroke-linecap="butt" stroke-miterlimit="4" stroke-width="1" d="M12.354 16.496l3 3-3 3"></path>
    <path stroke-linejoin="miter" stroke-linecap="butt" stroke-miterlimit="4" stroke-width="1.0001" d="M11.707 1.647l-3 3 3 3"></path>
    <path stroke-linejoin="miter" stroke-linecap="butt" stroke-miterlimit="4" stroke-width="1" d="M15 19.5h-3"></path>
    <path stroke-linejoin="miter" stroke-linecap="butt" stroke-miterlimit="4" stroke-width="1" d="M12 4.5h-3"></path>
    </symbol>
    <symbol id="toggle" viewBox="0 0 24 24">
    <title>toggle</title>
    <path stroke-linejoin="round" stroke-linecap="butt" stroke-miterlimit="4" stroke-width="1" d="M6.003 8.498h11"></path>
    <path stroke-linejoin="miter" stroke-linecap="butt" stroke-miterlimit="4" stroke-width="1.0001" d="M14.296 5.646l3 3-3 3"></path>
    <path stroke-linejoin="round" stroke-linecap="butt" stroke-miterlimit="4" stroke-width="1" d="M18 15.498h-11"></path>
    <path stroke-linejoin="miter" stroke-linecap="butt" stroke-miterlimit="4" stroke-width="1.0001" d="M9.707 12.647l-3 3 3 3"></path>
    </symbol>
    <symbol id="undo" viewBox="0 0 24 24">
    <title>undo</title>
    <path stroke-linejoin="round" stroke-linecap="butt" stroke-miterlimit="4" stroke-width="1" d="M17.503 18c0-4.144-3.359-7.503-7.503-7.502h-3"></path>
    <path stroke-linejoin="miter" stroke-linecap="butt" stroke-miterlimit="4" stroke-width="1.0001" d="M9.707 7.647l-3 3 3 3"></path>
    </symbol>
    <symbol id="view-list" viewBox="0 0 24 24">
    <title>view-list</title>
    <path d="M4.5 2.999c-0.822 0-1.5 0.678-1.5 1.5v2c0 0.822 0.678 1.5 1.5 1.5h2c0.822 0 1.5-0.678 1.5-1.5v-2c0-0.822-0.678-1.5-1.5-1.5z"></path>
    <path d="M4.5 9.999c-0.822 0-1.5 0.678-1.5 1.5v2c0 0.822 0.678 1.5 1.5 1.5h2c0.822 0 1.5-0.678 1.5-1.5v-2c0-0.822-0.678-1.5-1.5-1.5z"></path>
    <path d="M4.5 16.999c-0.822 0-1.5 0.678-1.5 1.5v2c0 0.822 0.678 1.5 1.5 1.5h2c0.822 0 1.5-0.678 1.5-1.5v-2c0-0.822-0.678-1.5-1.5-1.5z"></path>
    <path fill="none" stroke="#000" style="stroke: var(--color1, #000)" stroke-linejoin="miter" stroke-linecap="butt" stroke-miterlimit="4" stroke-width="1" d="M10 5.5h11"></path>
    <path fill="none" stroke="#000" style="stroke: var(--color1, #000)" stroke-linejoin="miter" stroke-linecap="butt" stroke-miterlimit="4" stroke-width="1" d="M10 12.5h11"></path>
    <path fill="none" stroke="#000" style="stroke: var(--color1, #000)" stroke-linejoin="miter" stroke-linecap="butt" stroke-miterlimit="4" stroke-width="1" d="M10 19.5h11"></path>
    </symbol>
    <symbol id="view-teasers-horizontal" viewBox="0 0 24 24">
    <title>view-teasers-horizontal</title>
    <path d="M4.5 2.999c-0.822 0-1.5 0.678-1.5 1.5v5c0 0.822 0.678 1.5 1.5 1.5h5c0.822 0 1.5-0.678 1.5-1.5v-5c0-0.822-0.678-1.5-1.5-1.5z"></path>
    <path d="M4.5 12.999c-0.822 0-1.5 0.678-1.5 1.5v5c0 0.822 0.678 1.5 1.5 1.5h5c0.822 0 1.5-0.678 1.5-1.5v-5c0-0.822-0.678-1.5-1.5-1.5z"></path>
    <path fill="none" stroke="#000" style="stroke: var(--color1, #000)" stroke-linejoin="miter" stroke-linecap="butt" stroke-miterlimit="4" stroke-width="1" d="M13 4.5h8"></path>
    <path fill="none" stroke="#000" style="stroke: var(--color1, #000)" stroke-linejoin="miter" stroke-linecap="butt" stroke-miterlimit="4" stroke-width="1" d="M13 6.5h8"></path>
    <path fill="none" stroke="#000" style="stroke: var(--color1, #000)" stroke-linejoin="miter" stroke-linecap="butt" stroke-miterlimit="4" stroke-width="1" d="M13 8.5h4"></path>
    <path fill="none" stroke="#000" style="stroke: var(--color1, #000)" stroke-linejoin="miter" stroke-linecap="butt" stroke-miterlimit="4" stroke-width="1" d="M13 14.5h8"></path>
    <path fill="none" stroke="#000" style="stroke: var(--color1, #000)" stroke-linejoin="miter" stroke-linecap="butt" stroke-miterlimit="4" stroke-width="1" d="M13 16.5h8"></path>
    <path fill="none" stroke="#000" style="stroke: var(--color1, #000)" stroke-linejoin="miter" stroke-linecap="butt" stroke-miterlimit="4" stroke-width="1" d="M13 18.5h4"></path>
    </symbol>
    <symbol id="view-teasers-vertical" viewBox="0 0 24 24">
    <title>view-teasers-vertical</title>
    <path d="M4.5 4.999c-0.822 0-1.5 0.678-1.5 1.5v5c0 0.822 0.678 1.5 1.5 1.5h5c0.822 0 1.5-0.678 1.5-1.5v-5c0-0.822-0.678-1.5-1.5-1.5z"></path>
    <path d="M15.5 4.999c-0.822 0-1.5 0.678-1.5 1.5v5c0 0.822 0.678 1.5 1.5 1.5h5c0.822 0 1.5-0.678 1.5-1.5v-5c0-0.822-0.678-1.5-1.5-1.5z"></path>
    <path fill="none" stroke="#000" style="stroke: var(--color1, #000)" stroke-linejoin="miter" stroke-linecap="butt" stroke-miterlimit="4" stroke-width="1" d="M3 14.5h8"></path>
    <path fill="none" stroke="#000" style="stroke: var(--color1, #000)" stroke-linejoin="miter" stroke-linecap="butt" stroke-miterlimit="4" stroke-width="1" d="M3 16.5h8"></path>
    <path fill="none" stroke="#000" style="stroke: var(--color1, #000)" stroke-linejoin="miter" stroke-linecap="butt" stroke-miterlimit="4" stroke-width="1" d="M3 18.5h4"></path>
    <path fill="none" stroke="#000" style="stroke: var(--color1, #000)" stroke-linejoin="miter" stroke-linecap="butt" stroke-miterlimit="4" stroke-width="1" d="M14 14.5h8"></path>
    <path fill="none" stroke="#000" style="stroke: var(--color1, #000)" stroke-linejoin="miter" stroke-linecap="butt" stroke-miterlimit="4" stroke-width="1" d="M14 16.5h8"></path>
    <path fill="none" stroke="#000" style="stroke: var(--color1, #000)" stroke-linejoin="miter" stroke-linecap="butt" stroke-miterlimit="4" stroke-width="1" d="M14 18.5h4"></path>
    </symbol>
    <symbol id="view-thumbnails-2" viewBox="0 0 24 24">
    <title>view-thumbnails-2</title>
    <path d="M4.5 2.999c-0.822 0-1.5 0.678-1.5 1.5v2c0 0.822 0.678 1.5 1.5 1.5h2c0.822 0 1.5-0.678 1.5-1.5v-2c0-0.822-0.678-1.5-1.5-1.5z"></path>
    <path d="M4.5 9.999c-0.822 0-1.5 0.678-1.5 1.5v2c0 0.822 0.678 1.5 1.5 1.5h2c0.822 0 1.5-0.678 1.5-1.5v-2c0-0.822-0.678-1.5-1.5-1.5z"></path>
    <path d="M4.5 16.999c-0.822 0-1.5 0.678-1.5 1.5v2c0 0.822 0.678 1.5 1.5 1.5h2c0.822 0 1.5-0.678 1.5-1.5v-2c0-0.822-0.678-1.5-1.5-1.5z"></path>
    <path d="M11.5 2.999c-0.822 0-1.5 0.678-1.5 1.5v2c0 0.822 0.678 1.5 1.5 1.5h2c0.822 0 1.5-0.678 1.5-1.5v-2c0-0.822-0.678-1.5-1.5-1.5z"></path>
    <path d="M11.5 9.999c-0.822 0-1.5 0.678-1.5 1.5v2c0 0.822 0.678 1.5 1.5 1.5h2c0.822 0 1.5-0.678 1.5-1.5v-2c0-0.822-0.678-1.5-1.5-1.5z"></path>
    <path d="M11.5 16.999c-0.822 0-1.5 0.678-1.5 1.5v2c0 0.822 0.678 1.5 1.5 1.5h2c0.822 0 1.5-0.678 1.5-1.5v-2c0-0.822-0.678-1.5-1.5-1.5z"></path>
    <path d="M18.5 2.999c-0.822 0-1.5 0.678-1.5 1.5v2c0 0.822 0.678 1.5 1.5 1.5h2c0.822 0 1.5-0.678 1.5-1.5v-2c0-0.822-0.678-1.5-1.5-1.5z"></path>
    <path d="M18.5 9.999c-0.822 0-1.5 0.678-1.5 1.5v2c0 0.822 0.678 1.5 1.5 1.5h2c0.822 0 1.5-0.678 1.5-1.5v-2c0-0.822-0.678-1.5-1.5-1.5z"></path>
    <path d="M18.5 16.999c-0.822 0-1.5 0.678-1.5 1.5v2c0 0.822 0.678 1.5 1.5 1.5h2c0.822 0 1.5-0.678 1.5-1.5v-2c0-0.822-0.678-1.5-1.5-1.5z"></path>
    </symbol>
    <symbol id="view-thumbnails" viewBox="0 0 24 24">
    <title>view-thumbnails</title>
    <path d="M4.5 2.999c-0.822 0-1.5 0.678-1.5 1.5v5c0 0.822 0.678 1.5 1.5 1.5h5c0.822 0 1.5-0.678 1.5-1.5v-5c0-0.822-0.678-1.5-1.5-1.5z"></path>
    <path d="M14.5 2.999c-0.822 0-1.5 0.678-1.5 1.5v5c0 0.822 0.678 1.5 1.5 1.5h5c0.822 0 1.5-0.678 1.5-1.5v-5c0-0.822-0.678-1.5-1.5-1.5z"></path>
    <path d="M4.5 12.999c-0.822 0-1.5 0.678-1.5 1.5v5c0 0.822 0.678 1.5 1.5 1.5h5c0.822 0 1.5-0.678 1.5-1.5v-5c0-0.822-0.678-1.5-1.5-1.5z"></path>
    <path d="M14.5 12.999c-0.822 0-1.5 0.678-1.5 1.5v5c0 0.822 0.678 1.5 1.5 1.5h5c0.822 0 1.5-0.678 1.5-1.5v-5c0-0.822-0.678-1.5-1.5-1.5z"></path>
    </symbol>
    <symbol id="bell" viewBox="0 0 24 24">
    <title>bell</title>
    <path d="M12 2c-1.099 0-2 0.901-2 2v0.354c-2.324 0.826-3.996 3.043-3.996 5.646l-0.004 3.293-2 2v2.707h16v-2.707l-2-2-0.004-3.293c0-2.604-1.672-4.82-3.996-5.646v-0.354c0-1.099-0.901-2-2-2zM9.184 19c0.415 1.161 1.517 2 2.816 2s2.401-0.839 2.816-2z"></path>
    </symbol>
    <symbol id="user" viewBox="0 0 24 24">
    <title>user</title>
    <path d="M12 2c-2.756 0-5 2.244-5 5 0 1.886 1.064 3.512 2.611 4.363-3.249 1.018-5.611 4.056-5.611 7.637 0 0.536 0.338 0.971 0.783 1.314s1.037 0.631 1.75 0.877c1.427 0.493 3.345 0.809 5.467 0.809s4.040-0.316 5.467-0.809c0.713-0.246 1.305-0.533 1.75-0.877s0.783-0.778 0.783-1.314c0-3.581-2.363-6.619-5.611-7.637 1.547-0.851 2.611-2.477 2.611-4.363 0-2.755-2.244-5-5-5z"></path>
    </symbol>
    <symbol id="bookmark" viewBox="0 0 24 24">
    <title>bookmark</title>
    <path d="M7.499 3c-0.417 0-0.816 0.131-1.096 0.412s-0.404 0.678-0.404 1.088v15c0 0.45 0.066 0.793 0.221 1.070s0.43 0.464 0.68 0.516c0.499 0.103 0.853-0.154 0.853-0.154 0.028-0.017 0.054-0.037 0.078-0.059l4.168-3.705 4.168 3.705c0.030 0.027 0.064 0.050 0.1 0.068 0 0 0.363 0.233 0.848 0.119 0.242-0.057 0.509-0.241 0.664-0.514s0.221-0.61 0.221-1.047v-15c0-0.41-0.125-0.806-0.404-1.088s-0.679-0.412-1.096-0.412z"></path>
    </symbol>
    <symbol id="comment" viewBox="0 0 24 24">
    <title>comment</title>
    <path d="M6.312 4c-1.827 0-3.312 1.485-3.312 3.312v6.375c0 1.827 1.485 3.312 3.312 3.312h0.719v3.5c0.001 0.4 0.469 0.615 0.773 0.355l4.5-3.855h5.383c1.827 0 3.312-1.485 3.312-3.312v-6.375c0-1.827-1.485-3.312-3.312-3.312z"></path>
    </symbol>
    <symbol id="favorite" viewBox="0 0 24 24">
    <title>favorite</title>
    <path d="M8.5 4c-2.478 0-4.532 2.143-4.5 4.629-0 3.184 2.097 6.103 4.137 8.248 1.313 1.403 2.799 2.622 4.363 3.729 1.75-1.348 3.134-2.45 4.361-3.725 2.025-2.129 4.102-5.023 4.133-8.186 0-0.003 0-0.005 0-0.008 0.003-0.021 0.005-0.042 0.006-0.063 0-0.033-0.003-0.067-0.010-0.1 0-0.001 0-0.001 0-0.002-0.056-2.432-2.046-4.523-4.49-4.523-1.155 0-2.239 0.293-3.090 0.814-0.367 0.224-0.675 0.522-0.912 0.891-0.237-0.366-0.543-0.667-0.908-0.891-0.851-0.521-1.935-0.814-3.090-0.814z"></path>
    </symbol>
    <symbol id="filter" viewBox="0 0 24 24">
    <title>filter</title>
    <path d="M5.5 4c-0.393-0-0.633 0.432-0.424 0.766l4.924 7.877v6.857c-0 0.399 0.445 0.638 0.777 0.416l3-2c0.139-0.093 0.223-0.249 0.223-0.416v-4.857l4.924-7.877c0.209-0.333-0.031-0.766-0.424-0.766z"></path>
    </symbol>
    <symbol id="flag" viewBox="0 0 24 24">
    <title>flag</title>
    <path fill="none" stroke="#000" style="stroke: var(--color1, #000)" stroke-linejoin="miter" stroke-linecap="butt" stroke-miterlimit="4" stroke-width="1" d="M6.5 4v16"></path>
    <path d="M6 3.999v9h13.5l-3.375-4.5 3.375-4.5z"></path>
    </symbol>
    <symbol id="paper-plane" viewBox="0 0 24 24">
    <title>paper-plane</title>
    <path d="M5.049 4.494c-0.070 0.005-0.139 0.025-0.201 0.059l-0.779 0.418c-0.214 0.115-0.315 0.367-0.238 0.598l1.977 5.932h14.801l-15.316-6.963c-0.076-0.034-0.159-0.049-0.242-0.043zM5.807 12.5l-1.857 5.572c-0.051 0.154-0.025 0.322 0.070 0.453l0.59 0.809c0.14 0.191 0.394 0.258 0.609 0.16l15.389-6.994z"></path>
    </symbol>
    <symbol id="tag" viewBox="0 0 24 24">
    <title>tag</title>
    <path d="M17.174 2.881v0.002c-0.018 0.001-0.782 0.032-2.508 0.178-0.582 0.049-1.838 0.215-3.182 1.559l-7.039 7.039c-0.593 0.593-0.593 1.571 0 2.164l5.625 5.625c0.593 0.594 1.571 0.593 2.164 0l7.039-7.039c1.342-1.342 1.524-2.587 1.559-3.195 0.101-1.779 0.176-2.623 0.176-2.623 0.001-0.005 0.001-0.010 0.002-0.016 0.057-0.963-0.285-1.951-1.020-2.686-0.768-0.768-1.811-1.106-2.816-1.008zM18 5c0.552 0 1 0.448 1 1v0c0 0.552-0.448 1-1 1v0c-0.552 0-1-0.448-1-1v0c0-0.552 0.448-1 1-1v0z"></path>
    </symbol>
    <symbol id="trash" viewBox="0 0 24 24">
    <title>trash</title>
    <path d="M5.5 6c-0.276-0-0.5 0.224-0.5 0.5v1.002c0.001 0.275 0.225 0.498 0.5 0.498h13c0.275 0 0.499-0.223 0.5-0.498v-1.002c0-0.276-0.224-0.5-0.5-0.5zM6 9v11.5c0 0.276 0.224 0.5 0.5 0.5h11c0.276-0 0.5-0.224 0.5-0.5v-11.5zM9 11h1v8h-1zM11.5 11h1v8h-1zM14 11h1v8h-1z"></path>
    <path fill="none" stroke="#000" style="stroke: var(--color1, #000)" stroke-linejoin="round" stroke-linecap="square" stroke-miterlimit="4" stroke-width="1.0004" d="M9.5 4.5h5v2h-5v-2z"></path>
    </symbol>
    <symbol id="media-image" viewBox="0 0 24 24">
    <title>media-image</title>
    <path stroke-linejoin="round" stroke-linecap="butt" stroke-miterlimit="4" stroke-width="1.0001" d="M4.53 3.5h14.939c0.569 0 1.030 0.461 1.030 1.030v14.939c0 0.569-0.461 1.030-1.030 1.030h-14.939c-0.569 0-1.030-0.461-1.030-1.030v-14.939c0-0.569 0.461-1.030 1.030-1.030z"></path>
    <path stroke-linejoin="miter" stroke-linecap="square" stroke-miterlimit="4" stroke-width="1" d="M4 18l6.5-5.5 5.5 5.5"></path>
    <path stroke-linejoin="miter" stroke-linecap="square" stroke-miterlimit="4" stroke-width="1" d="M15 16l2.5-2.5 2.5 2.5"></path>
    <path stroke-linejoin="miter" stroke-linecap="square" stroke-miterlimit="4" stroke-width="0.9998" d="M16.5 10.5c0 1.105-0.895 2-2 2s-2-0.895-2-2c0-1.105 0.895-2 2-2s2 0.895 2 2z"></path>
    </symbol>
    <symbol id="module" viewBox="0 0 24 24">
    <title>module</title>
    <path stroke-linejoin="round" stroke-linecap="butt" stroke-miterlimit="4" stroke-width="0.9999" d="M4.53 8.485h14.939c0.571 0 1.030 0.459 1.030 1.030v7.955c0 0.571-0.46 1.030-1.030 1.030h-14.939c-0.571 0-1.030-0.459-1.030-1.030v-7.955c0-0.571 0.46-1.030 1.030-1.030z"></path>
    <path stroke-linejoin="miter" stroke-linecap="butt" stroke-miterlimit="4" stroke-width="0.9996" d="M18.5 8.626v-2.283c0-0.476-0.383-0.859-0.859-0.859h-3.283c-0.476 0-0.859 0.383-0.859 0.859v2.283"></path>
    <path stroke-linejoin="miter" stroke-linecap="butt" stroke-miterlimit="4" stroke-width="0.9996" d="M10.5 8.626v-2.283c0-0.476-0.383-0.859-0.859-0.859h-3.283c-0.476 0-0.859 0.383-0.859 0.859v2.283"></path>
    </symbol>
    <symbol id="package" viewBox="0 0 24 24">
    <title>package</title>
    <path stroke-linejoin="miter" stroke-linecap="butt" stroke-miterlimit="4" stroke-width="0.9976" d="M5.57 8.499h12.859c0.594 0 1.072 0.478 1.072 1.072v8.859c0 0.594-0.478 1.072-1.072 1.072h-12.859c-0.594 0-1.072-0.478-1.072-1.072v-8.859c0-0.594 0.478-1.072 1.072-1.072z"></path>
    <path stroke-linejoin="miter" stroke-linecap="butt" stroke-miterlimit="4" stroke-width="1" d="M4.5 12v-3.5l1.999-2.964c0.332-0.492 0.478-1.072 1.072-1.072h8.859c0.594 0 0.74 0.579 1.072 1.072l1.999 2.964-0.001 3.5"></path>
    <path stroke-linejoin="miter" stroke-linecap="butt" stroke-miterlimit="4" stroke-width="1" d="M12 4.965v3.035"></path>
    </symbol>
  </defs>
</svg>
